<svg width="72" height="68" viewBox="0 0 72 68" fill="none" xmlns="http://www.w3.org/2000/svg">
<path d="M67.2171 22.4796C63.9643 19.1036 59.5918 17.2442 54.9051 17.2442H37.0565V12.5917C37.0565 10.1573 35.076 8.17675 32.6415 8.17675H29.6308C28.3614 8.17675 27.3286 7.144 27.3286 5.87458V1.60661C27.3286 1.02315 26.8557 0.550232 26.2723 0.550232C25.6888 0.550232 25.2159 1.02315 25.2159 1.60661V5.87444C25.2159 8.3088 27.1965 10.2894 29.6308 10.2894H32.6415C33.9109 10.2894 34.9438 11.3221 34.9438 12.5915V17.2441H24.6701C24.0867 17.2441 23.6138 17.717 23.6138 18.3005C23.6138 18.8839 24.0867 19.3569 24.6701 19.3569H54.9049C59.0126 19.3569 62.8447 20.9864 65.6955 23.9453C68.5448 26.9028 70.0296 30.7976 69.8764 34.9124C69.5827 42.8026 63.3054 49.0213 55.4738 49.3097C53.3751 45.9381 49.637 43.6879 45.3815 43.6879C44.6867 43.6879 44.0068 43.7514 43.3443 43.8663C43.0571 43.5181 42.7829 43.1555 42.5288 42.7839C41.9295 41.9076 40.9468 41.3845 39.9 41.3845H32.0985C31.0514 41.3845 30.0713 41.9044 29.4768 42.7751C26.6785 46.8741 22.0497 49.3212 17.0948 49.3212C13.0832 49.3212 9.3143 47.7562 6.48239 44.9146C3.65063 42.0731 2.09869 38.2985 2.11261 34.2859C2.14102 26.054 8.94024 19.3567 17.2689 19.3567H19.3307C19.9142 19.3567 20.3871 18.8838 20.3871 18.3003C20.3871 17.7169 19.9142 17.244 19.3307 17.244H17.2689C7.77923 17.244 0.0323444 24.8857 -0.000139972 34.2786C-0.01589 38.8568 1.75486 43.1638 4.98586 46.4059C8.217 49.6483 12.5175 51.434 17.0948 51.434C22.7485 51.434 28.0295 48.6423 31.2218 43.9662C31.4224 43.6726 31.75 43.4973 32.0986 43.4973H39.9001C40.2488 43.4973 40.5797 43.6765 40.7849 43.9765C40.8995 44.1441 41.0186 44.3095 41.1397 44.4736C36.6778 46.1853 33.5007 50.5118 33.5007 55.5688C33.5007 62.1199 38.8304 67.4496 45.3815 67.4496C47.5847 67.4496 49.7358 66.842 51.6031 65.6922C52.0999 65.3864 52.2546 64.7357 51.9487 64.2389C51.6427 63.7421 50.992 63.5874 50.4952 63.8932C48.9614 64.8377 47.193 65.3369 45.3814 65.3369C39.9953 65.3369 35.6133 60.955 35.6133 55.5688C35.6133 50.1826 39.9953 45.8007 45.3814 45.8007C50.7675 45.8007 55.1495 50.1826 55.1495 55.5688C55.1495 57.3475 54.6673 59.0881 53.7548 60.6022C53.4537 61.102 53.6146 61.7511 54.1143 62.0522C54.614 62.3532 55.2631 62.1924 55.5643 61.6926C56.6751 59.8493 57.2622 57.7316 57.2622 55.5686C57.2622 54.0876 56.9874 52.6699 56.49 51.3613C64.9846 50.5898 71.6639 43.6775 71.9875 34.9908C72.1626 30.2975 70.4682 25.854 67.2171 22.4796Z" fill="#6655E5"/>
<path d="M55.037 23.9806C53.0144 23.9806 51.3689 25.626 51.3689 27.6487C51.3689 29.6713 53.0144 31.3167 55.037 31.3167C57.0594 31.3167 58.7049 29.6713 58.7049 27.6487C58.705 25.6262 57.0596 23.9806 55.037 23.9806ZM55.037 29.2041C54.1793 29.2041 53.4815 28.5063 53.4815 27.6487C53.4815 26.791 54.1793 26.0932 55.037 26.0932C55.8946 26.0932 56.5923 26.791 56.5923 27.6487C56.5923 28.5063 55.8946 29.2041 55.037 29.2041Z" fill="#6655E5"/>
<path d="M55.037 37.1794C53.0144 37.1794 51.3689 38.8248 51.3689 40.8474C51.3689 42.8701 53.0144 44.5155 55.037 44.5155C57.0594 44.5155 58.7049 42.8701 58.7049 40.8474C58.7049 38.8248 57.0596 37.1794 55.037 37.1794ZM55.037 42.4029C54.1793 42.4029 53.4815 41.7051 53.4815 40.8474C53.4815 39.9898 54.1793 39.292 55.037 39.292C55.8946 39.292 56.5923 39.9896 56.5923 40.8474C56.5923 41.7053 55.8946 42.4029 55.037 42.4029Z" fill="#6655E5"/>
<path d="M61.6358 37.9163C63.6584 37.9163 65.3039 36.2708 65.3039 34.2482C65.3039 32.2256 63.6584 30.5801 61.6358 30.5801C59.6132 30.5801 57.9678 32.2256 57.9678 34.2482C57.9678 36.2708 59.6132 37.9163 61.6358 37.9163ZM61.6358 32.6928C62.4935 32.6928 63.1913 33.3905 63.1913 34.2482C63.1913 35.1059 62.4935 35.8035 61.6358 35.8035C60.7782 35.8035 60.0804 35.1059 60.0804 34.2482C60.0805 33.3905 60.7783 32.6928 61.6358 32.6928Z" fill="#6655E5"/>
<path d="M48.4371 30.5801C46.4145 30.5801 44.769 32.2256 44.769 34.2482C44.769 36.2708 46.4145 37.9163 48.4371 37.9163C50.4597 37.9163 52.1052 36.2708 52.1052 34.2482C52.1053 32.2256 50.4597 30.5801 48.4371 30.5801ZM48.4371 35.8035C47.5794 35.8035 46.8817 35.1059 46.8817 34.2482C46.8817 33.3905 47.5794 32.6928 48.4371 32.6928C49.2948 32.6928 49.9926 33.3905 49.9926 34.2482C49.9926 35.1059 49.2948 35.8035 48.4371 35.8035Z" fill="#6655E5"/>
<path d="M16.9977 24.2592C14.9421 24.1415 13.0853 25.9316 13.1299 27.9892V30.2984H10.8848C8.8289 30.2984 7.16221 31.8786 7.09077 33.8959C7.06996 34.4789 7.52601 34.9685 8.10904 34.9891C8.69798 35.0115 9.18144 34.554 9.20212 33.9709C9.23263 33.1108 9.98751 32.4112 10.8848 32.4112H13.6228C14.5159 32.4112 15.2425 31.6846 15.2425 30.7915V27.9892C15.2242 27.0953 16.0274 26.3199 16.9224 26.3705C17.7824 26.4012 18.4821 27.1562 18.4821 28.0534V30.7913C18.4821 31.6844 19.2087 32.4111 20.1018 32.4111H22.8399C23.7373 32.4111 24.4921 33.1108 24.5226 33.9709C24.5743 34.864 23.7974 35.6698 22.9041 35.6506H20.1018C19.2087 35.6506 18.4821 36.3772 18.4821 37.2704V40.0726C18.5015 40.9668 17.695 41.7414 16.8022 41.6913C15.9423 41.6607 15.2425 40.9057 15.2425 40.0085V37.2705C15.2425 36.3774 14.5159 35.6508 13.6228 35.6508H12.5041C11.9207 35.6508 11.4478 36.1237 11.4478 36.7072C11.4478 37.2906 11.9207 37.7635 12.5041 37.7635H13.1298V40.0086C13.1298 42.0644 14.71 43.7311 16.7271 43.8028C18.7781 43.9229 20.6414 42.1292 20.5949 40.0727V37.7635H22.9042C24.9614 37.8082 26.7527 35.9513 26.6343 33.8961C26.5627 31.8788 24.8961 30.2986 22.8402 30.2986H20.595V28.0535C20.5949 25.9976 19.0148 24.3309 16.9977 24.2592Z" fill="#6655E5"/>
<path d="M45.3817 61.0657C45.9651 61.0657 46.438 60.5928 46.438 60.0093V56.6557H49.7917C50.3751 56.6557 50.848 56.1828 50.848 55.5993C50.848 55.0159 50.3751 54.5429 49.7917 54.5429H46.438V51.1893C46.438 50.6059 45.9651 50.1329 45.3817 50.1329C44.7982 50.1329 44.3253 50.6059 44.3253 51.1893V54.5429H40.9717C40.3882 54.5429 39.9153 55.0159 39.9153 55.5993C39.9153 56.1828 40.3882 56.6557 40.9717 56.6557H44.3253V60.0093C44.3253 60.5928 44.7982 61.0657 45.3817 61.0657Z" fill="#6655E5"/>
</svg>
