<svg width="20" height="20" viewBox="0 0 20 20" xmlns="http://www.w3.org/2000/svg">
<path d="M20 10.0005C20 4.47849 15.522 0.000488281 10 0.000488281C4.478 0.000488281 0 4.47849 0 10.0005C0 15.5225 4.478 20.0005 10 20.0005C10.0587 20.0005 10.1172 19.9993 10.1758 19.9982V12.2136H8.02734V9.70981H10.1758V7.86731C10.1758 5.73047 11.4803 4.56744 13.3864 4.56744C14.2992 4.56744 15.0838 4.6355 15.3125 4.66586V6.89914H13.9981C12.9611 6.89914 12.7603 7.392 12.7603 8.11511V9.70981H15.2399L14.9167 12.2136H12.7603V19.6141C16.9402 18.4159 20 14.565 20 10.0005Z"/>
</svg>
