<svg width="40" height="40" viewBox="0 0 40 40" fill="none" xmlns="http://www.w3.org/2000/svg">
<g>
<path d="M39.6059 0.102619C39.3622 -0.0364436 39.0625 -0.0340999 38.8211 0.108713L24.5044 8.57465C24.133 8.79426 24.0099 9.27332 24.2295 9.64473C24.4491 10.0161 24.9281 10.1391 25.2996 9.91957L35.5716 3.84543L16.4384 23.698L6.9221 20.7866L19.3412 13.4429C19.7126 13.2232 19.8357 12.7441 19.6161 12.3727C19.3966 12.0014 18.9174 11.8782 18.546 12.0979L4.60234 20.3431C4.33593 20.5007 4.18757 20.8006 4.22421 21.108C4.26085 21.4154 4.47546 21.6722 4.7714 21.7627L16.1362 25.2396L21.15 34.3656C21.1552 34.375 21.1606 34.383 21.1662 34.3901C21.2498 34.5297 21.3752 34.6436 21.5316 34.7094C21.6295 34.7506 21.7324 34.7707 21.8346 34.7707C22.0348 34.7707 22.2319 34.6936 22.3808 34.5481L28.1459 28.9137L38.9901 32.2314C39.0651 32.2543 39.1421 32.2656 39.2187 32.2656C39.384 32.2656 39.5473 32.2131 39.6833 32.1124C39.8825 31.965 40 31.732 40 31.4843V0.781213C40 0.500666 39.8495 0.241603 39.6059 0.102619ZM21.1926 25.7211C21.1021 25.8518 21.0536 26.0069 21.0536 26.1659V30.9449L17.6299 24.7132L32.78 8.99371L21.1926 25.7211ZM22.6161 32.1335V27.222L26.4434 28.3929L22.6161 32.1335ZM38.4375 30.4283L23.086 25.7318L38.4375 3.57059V30.4283Z" fill="white"/>
<path d="M12.8455 27.1543C12.5404 26.8492 12.0458 26.8492 11.7406 27.1543L4.44748 34.4474C4.1424 34.7525 4.1424 35.2472 4.44748 35.5523C4.60014 35.7048 4.80006 35.7811 4.99998 35.7811C5.1999 35.7811 5.39982 35.7048 5.5524 35.5523L12.8455 28.2591C13.1506 27.9541 13.1506 27.4594 12.8455 27.1543Z" fill="white"/>
<path d="M3.13056 36.8693C2.8254 36.5644 2.33087 36.5644 2.02571 36.8694L0.228839 38.6662C-0.076239 38.9713 -0.076239 39.466 0.228839 39.7712C0.381417 39.9237 0.581339 39.9999 0.781261 39.9999C0.981183 39.9999 1.1811 39.9236 1.33368 39.7711L3.13056 37.9742C3.43564 37.6691 3.43564 37.1745 3.13056 36.8693Z" fill="white"/>
<path d="M11.1444 38.6202C10.9992 38.4749 10.7976 38.3913 10.5922 38.3913C10.3859 38.3913 10.1851 38.4749 10.0398 38.6202C9.89452 38.7655 9.81093 38.9663 9.81093 39.1725C9.81093 39.378 9.89444 39.5796 10.0398 39.7249C10.1851 39.8702 10.3867 39.9538 10.5922 39.9538C10.7976 39.9538 10.9992 39.8702 11.1444 39.7249C11.2898 39.5796 11.3734 39.378 11.3734 39.1725C11.3734 38.9663 11.2898 38.7655 11.1444 38.6202Z" fill="white"/>
<path d="M16.9571 32.8074C16.6522 32.5023 16.1577 32.5023 15.8523 32.8074L11.9893 36.6703C11.6842 36.9753 11.6842 37.47 11.9893 37.7751C12.1419 37.9277 12.3418 38.0039 12.5417 38.0039C12.7416 38.0039 12.9416 37.9276 13.0941 37.7751L16.9571 33.9122C17.2622 33.6071 17.2622 33.1124 16.9571 32.8074Z" fill="white"/>
<path d="M30.2894 32.5109C29.9842 32.2059 29.4897 32.2059 29.1846 32.5109L25.3111 36.3843C25.006 36.6894 25.006 37.1841 25.3111 37.4893C25.4637 37.6418 25.6636 37.7181 25.8635 37.7181C26.0635 37.7181 26.2634 37.6418 26.416 37.4893L30.2894 33.6158C30.5945 33.3108 30.5945 32.8161 30.2894 32.5109Z" fill="white"/>
<path d="M22.1484 10.6493C22.0031 10.504 21.8016 10.4204 21.5961 10.4204C21.3906 10.4204 21.1891 10.504 21.0438 10.6493C20.8985 10.7946 20.8148 10.9962 20.8148 11.2024C20.8148 11.4079 20.8984 11.6087 21.0438 11.754C21.1891 11.9001 21.3906 11.9829 21.5961 11.9829C21.8016 11.9829 22.0031 11.9001 22.1484 11.754C22.2937 11.6087 22.3773 11.4079 22.3773 11.2024C22.3773 10.9962 22.2938 10.7946 22.1484 10.6493Z" fill="white"/>
</g>
</svg>
