<svg width="56" height="66" viewBox="0 0 56 66" fill="none" xmlns="http://www.w3.org/2000/svg">
<path d="M38.2972 49.4155C37.7724 49.4155 37.3472 49.8407 37.3472 50.3655V58.1795C37.3472 61.2718 34.8314 63.7875 31.739 63.7875H7.50823C4.41584 63.7875 1.90001 61.2718 1.90001 58.1795V8.18571C1.89989 5.09332 4.41584 2.57762 7.50823 2.57762H31.739C34.8314 2.57762 37.3472 5.09332 37.3472 8.18571V14.1693C37.3472 14.6941 37.7724 15.1193 38.2972 15.1193C38.8219 15.1193 39.2471 14.6941 39.2471 14.1693V8.18571C39.2471 4.04585 35.879 0.677734 31.7389 0.677734H7.50823C3.36812 0.677734 0 4.04585 0 8.18571V58.1795C0 62.3194 3.36812 65.6874 7.5081 65.6874H31.7389C35.879 65.6874 39.247 62.3193 39.247 58.1795V50.3655C39.2471 49.8407 38.8218 49.4155 38.2972 49.4155Z" fill="#6655E5"/>
<path d="M34.4975 18.9786C35.0223 18.9786 35.4475 18.5534 35.4475 18.0287V8.18586C35.4475 6.14108 33.7839 4.47766 31.7393 4.47766H30.171C29.4398 4.47766 28.7758 4.93756 28.5191 5.6219L28.1458 6.61617C27.8749 7.33775 27.1751 7.8226 26.4044 7.8226H12.8431C12.0724 7.8226 11.3726 7.33775 11.1017 6.6163L10.7286 5.62177C10.4713 4.93743 9.80749 4.47766 9.07667 4.47766H7.50837C5.46346 4.47766 3.80005 6.1412 3.80005 8.18586V12.7434C3.80005 13.2682 4.22524 13.6934 4.74999 13.6934C5.27474 13.6934 5.69994 13.2682 5.69994 12.7434V8.18586C5.69981 7.1888 6.51119 6.37755 7.50837 6.37755H8.98281L9.32315 7.28405C9.87082 8.74253 11.2855 9.72249 12.8433 9.72249H26.4044C27.9622 9.72249 29.3768 8.74253 29.9245 7.28405L30.2648 6.37755H31.7393C32.7363 6.37755 33.5476 7.1888 33.5476 8.18586V18.0287C33.5476 18.5534 33.9728 18.9786 34.4975 18.9786Z" fill="#6655E5"/>
<path d="M25.0454 6.01744C25.5701 6.01744 25.9953 5.59225 25.9953 5.0675C25.9953 4.54275 25.5701 4.11755 25.0454 4.11755H14.9993C14.4745 4.11755 14.0493 4.54275 14.0493 5.0675C14.0493 5.59225 14.4745 6.01744 14.9993 6.01744H25.0454Z" fill="#6655E5"/>
<path d="M55.3128 34.5083C55.3128 33.7462 55.0781 33.0124 54.6514 32.3995C55.3822 31.6762 55.7998 30.6916 55.7998 29.6311C55.7998 27.4775 54.0478 25.7254 51.8942 25.7254H46.3547L46.8472 24.6472C47.3269 23.5973 47.57 22.4795 47.57 21.3249V18.031C47.57 17.3365 47.4089 16.6398 47.1039 16.0159C46.4515 14.6805 45.0509 13.8177 43.5358 13.8177C42.3166 13.8177 41.2199 14.5424 40.7416 15.6641L39.6438 18.2399C39.6103 18.3183 39.5538 18.3824 39.4803 18.4252L35.125 20.961L34.3943 21.2715C33.0994 21.8217 32.0538 22.8247 31.4499 24.0957L30.5097 26.075C30.0086 25.7862 29.4284 25.6202 28.8097 25.6202H5.69969V16.7919C5.69969 16.2671 5.2745 15.842 4.74975 15.842C4.225 15.842 3.7998 16.2671 3.7998 16.7919V58.1798C3.7998 60.2246 5.46335 61.888 7.50813 61.888H31.739C33.7838 61.888 35.4472 60.2244 35.4472 58.1798V50.3563C35.4472 49.8316 35.022 49.4064 34.4973 49.4064C33.9725 49.4064 33.5474 49.8316 33.5474 50.3563V58.1798C33.5474 59.1769 32.7362 59.9881 31.739 59.9881H7.50826C6.51107 59.9881 5.69982 59.1769 5.69982 58.1798V46.0266H16.519C17.0438 46.0266 17.469 45.6014 17.469 45.0767C17.469 44.5519 17.0438 44.1267 16.519 44.1267H5.69982V27.5198H24.4532V44.1263H20.5673C20.0426 44.1263 19.6174 44.5515 19.6174 45.0763C19.6174 45.601 20.0426 46.0262 20.5673 46.0262H28.8098C29.5335 46.0262 30.2049 45.7994 30.7579 45.4139C31.0262 45.8747 31.4092 46.2689 31.8808 46.5472L32.3709 46.8363C33.1234 47.2807 33.9832 47.5155 34.8574 47.5155H43.063C43.5877 47.5155 44.0129 47.0903 44.0129 46.5655C44.0129 46.0408 43.5877 45.6156 43.063 45.6156H34.8574C34.3228 45.6156 33.797 45.472 33.3367 45.2003L32.8465 44.911C32.4639 44.6851 32.2262 44.2688 32.2262 43.8244V42.6098V29.0362V26.8893L33.1661 24.9106C33.5703 24.0596 34.2706 23.3881 35.1373 23.0197L40.4362 20.0668C40.8599 19.8202 41.199 19.436 41.3915 18.9847L42.4894 16.4089C42.6685 15.9889 43.0791 15.7173 43.5358 15.7173C44.3302 15.7173 45.0608 16.1619 45.3969 16.8498C45.5755 17.2154 45.67 17.6238 45.67 18.0308V21.3246C45.67 22.2049 45.4846 23.0571 45.1188 23.8576L44.4584 25.3035C44.2253 25.8136 44.2673 26.3998 44.5705 26.8717C44.8737 27.3435 45.3895 27.6251 45.9503 27.6251H51.8942C53.0002 27.6251 53.9 28.5248 53.9 29.6308C53.9 30.3375 53.5383 30.9789 52.9322 31.3467C52.6279 31.5315 52.4288 31.8533 52.3998 32.2076C52.3708 32.5627 52.5149 32.9133 52.7859 33.146C53.1843 33.4881 53.4128 33.9845 53.4128 34.5082C53.4128 35.1995 53.0263 35.818 52.404 36.1221C52.0894 36.276 51.8624 36.5729 51.797 36.9163C51.7317 37.2591 51.8335 37.6181 52.0693 37.8763C52.339 38.1718 52.4876 38.5551 52.4876 38.9556C52.4876 39.702 51.9594 40.3597 51.2315 40.5198C50.7207 40.6323 50.3498 41.0942 50.3498 41.6232C50.3498 42.0334 50.5743 42.4119 50.9352 42.6107C51.4592 42.8995 51.7771 43.45 51.7652 44.0472C51.7478 44.912 51.0021 45.6157 50.103 45.6157H47.1114C46.5867 45.6157 46.1615 46.0409 46.1615 46.5657C46.1615 47.0904 46.5867 47.5156 47.1114 47.5156H50.103C52.0288 47.5156 53.6265 45.9769 53.6646 44.0854C53.6816 43.2466 53.4008 42.45 52.894 41.8204C53.8037 41.1775 54.3875 40.1154 54.3875 38.9557C54.3875 38.3877 54.2507 37.8353 53.9934 37.3408C54.823 36.6495 55.3128 35.6252 55.3128 34.5083ZM28.8098 44.1263H26.3531V27.5198H28.8098C29.646 27.5198 30.3263 28.2001 30.3263 29.0363V42.61C30.3263 43.446 29.646 44.1263 28.8098 44.1263Z" fill="#6655E5"/>
<path d="M49.215 13.2626C48.9548 13.7655 48.9537 14.3665 49.212 14.8704C49.4704 15.3742 49.9588 15.7243 50.519 15.8069L53.7585 16.284C53.844 16.2967 53.9297 16.3028 54.015 16.3028C54.4295 16.3028 54.8344 16.1562 55.1549 15.8844C55.5371 15.5602 55.7612 15.0885 55.7701 14.5897C55.8054 12.5808 55.0543 10.9037 53.5371 9.60528C53.1267 9.25431 52.5879 9.11233 52.0571 9.21581C51.5274 9.31929 51.0815 9.65354 50.8338 10.1327L49.215 13.2626ZM52.4372 11.1685C53.3829 12.0333 53.8533 13.087 53.8708 14.3801L50.9949 13.9565L52.4372 11.1685Z" fill="#6655E5"/>
<path d="M45.5521 11.8238C45.8698 12.1642 46.3147 12.3544 46.7742 12.3544C46.8464 12.3544 46.9191 12.3497 46.9917 12.3401C47.5256 12.2697 47.9954 11.9438 48.248 11.4683L49.6218 8.88535C49.848 8.46003 49.8801 7.95744 49.7098 7.50666C49.5414 7.0607 49.19 6.70884 48.7459 6.54177C47.0362 5.89771 45.3705 6.02906 43.7953 6.93176C43.3496 7.18723 43.0502 7.62496 42.9736 8.13287C42.8971 8.64051 43.0539 9.1469 43.404 9.52206L45.5521 11.8238ZM47.8182 8.23077L46.7217 10.2924L44.9963 8.44356C45.9089 7.99354 46.8368 7.92337 47.8182 8.23077Z" fill="#6655E5"/>
</svg>
