<svg width="72" height="56" viewBox="0 0 72 56" fill="none" xmlns="http://www.w3.org/2000/svg">
<path d="M16.0322 9.61934C17.4137 9.61934 18.7844 9.95839 19.9962 10.5999C20.5075 10.8705 21.1414 10.6756 21.4121 10.1643C21.6828 9.65295 21.4878 9.01901 20.9765 8.74831C19.4638 7.94759 17.7542 7.52417 16.0322 7.52417C10.1981 7.52417 5.4519 12.2704 5.4519 18.1045C5.4519 23.9386 10.1983 28.6848 16.0322 28.6848C21.8662 28.6848 26.6126 23.9386 26.6126 18.1045C26.6126 16.1449 26.0726 14.2309 25.0508 12.5694C24.7478 12.0766 24.1027 11.9226 23.6098 12.2258C23.1171 12.5289 22.9632 13.1741 23.2663 13.6668C24.085 14.9981 24.5177 16.5326 24.5177 18.1045C24.5177 19.4594 24.1968 20.7402 23.6295 21.8776C22.7329 20.8457 21.5627 20.0983 20.2537 19.7221C20.7246 18.9533 20.9873 18.0591 20.9873 17.135C20.9873 14.4028 18.7645 12.18 16.0324 12.18C13.3003 12.18 11.0775 14.4028 11.0775 17.135C11.0775 18.0589 11.3403 18.9533 11.8111 19.722C10.502 20.0983 9.33189 20.8457 8.43526 21.8776C7.86798 20.7402 7.54708 19.4594 7.54708 18.1045C7.54694 13.4259 11.3535 9.61934 16.0322 9.61934ZM13.7851 21.5404C14.3331 21.6023 14.899 21.3337 15.0438 20.7712C15.169 20.3168 14.9753 19.8346 14.5706 19.5933C13.6951 19.071 13.1725 18.1522 13.1725 17.1352C13.1725 15.5582 14.4554 14.2752 16.0324 14.2752C17.6094 14.2752 18.8923 15.5581 18.8923 17.1352C18.8923 18.152 18.3696 19.071 17.4942 19.5933C17.0893 19.8348 16.8957 20.3168 17.021 20.7712C17.166 21.3337 17.7316 21.6021 18.2796 21.5404C19.9467 21.5404 21.4715 22.3559 22.399 23.705C20.8429 25.472 18.5665 26.5898 16.0324 26.5898C13.4985 26.5898 11.2219 25.4718 9.66573 23.705C10.5932 22.3559 12.118 21.5404 13.7851 21.5404Z" fill="#6655E5"/>
<path d="M56.9853 13.1585H45.1444C44.6693 9.76166 43.0471 6.63584 40.5132 4.27306C37.7255 1.67361 34.0899 0.242188 30.2761 0.242188H15.0147C6.73552 0.242328 0 6.97784 0 15.2569V20.9523C0 27.0657 3.654 32.5183 9.30895 34.8435C9.83053 35.0619 10.4562 34.8134 10.6761 34.273C10.8962 33.7379 10.6407 33.1258 10.1056 32.9059C5.23941 30.905 2.09503 26.213 2.09503 20.9523V15.2569C2.09503 8.13294 7.89075 2.33736 15.0145 2.33736H30.2761C36.6204 2.33736 42.0133 7.00681 43.0235 13.1585H41.7239C33.4447 13.1585 26.7092 19.894 26.7092 28.1731V33.8686V33.872H19.7369C19.3627 33.872 19.0169 34.0716 18.8297 34.3958L15.326 40.4642C15.2383 40.616 15.0989 40.6388 15.0235 40.6388C14.9483 40.6388 14.8089 40.6162 14.7212 40.4642L13.1711 37.7791C12.8818 37.278 12.2411 37.1063 11.7401 37.3956C11.239 37.6849 11.0673 38.3256 11.3567 38.8266L12.907 41.5117C13.3487 42.2768 14.14 42.7337 15.0237 42.7339C15.9072 42.7339 16.6987 42.277 17.1404 41.5117L20.3415 35.967H26.8564C27.8803 43.2561 34.1567 48.8833 41.7237 48.8833H51.596L54.8595 54.5357C55.3013 55.301 56.0926 55.7578 56.9763 55.7578C57.86 55.7578 58.6513 55.301 59.093 54.5357L63.1081 47.5815C64.8751 46.7926 66.4538 45.6826 67.805 44.2785C68.2062 43.8617 68.1934 43.1985 67.7766 42.7973C67.3598 42.3959 66.6966 42.4087 66.2954 42.8257C65.0602 44.1092 63.6048 45.1069 61.9696 45.7913C61.7581 45.8798 61.5817 46.0353 61.4669 46.2339L57.2785 53.4882C57.1909 53.64 57.0516 53.6627 56.9763 53.6627C56.9011 53.6627 56.7616 53.64 56.6738 53.488L53.108 47.3118C52.9208 46.9876 52.575 46.7879 52.2008 46.7879H41.7237C34.5998 46.7879 28.8042 40.9922 28.8042 33.8684V28.173C28.8042 21.0491 34.5999 15.2535 41.7237 15.2535H56.9853C64.1093 15.2535 69.9048 21.0492 69.9048 28.173V33.8684C69.9048 35.7425 69.5128 37.5493 68.7395 39.2386C68.4987 39.7647 68.7299 40.3864 69.256 40.627C69.7819 40.8678 70.4036 40.6366 70.6445 40.1105C71.5438 38.1455 71.9999 36.0453 71.9999 33.8683V28.1728C72 19.894 65.2645 13.1585 56.9853 13.1585Z" fill="#6655E5"/>
<path d="M32.1609 31.0208C32.1609 36.8549 36.9073 41.6011 42.7412 41.6011C48.5753 41.6011 53.3216 36.8547 53.3216 31.0208C53.3216 25.1868 48.5752 20.4404 42.7412 20.4404C36.9073 20.4404 32.1609 25.1868 32.1609 31.0208ZM42.7412 39.5062C40.2073 39.5062 37.9307 38.3883 36.3746 36.6213C37.3021 35.272 38.8269 34.4567 40.494 34.4567C41.0421 34.5185 41.6079 34.2499 41.7528 33.6874C41.8779 33.2331 41.6843 32.7509 41.2794 32.5094C40.4039 31.9873 39.8813 31.0684 39.8813 30.0514C39.8813 28.4745 41.1643 27.1916 42.7414 27.1916C44.3182 27.1916 45.6013 28.4745 45.6013 30.0514C45.6013 31.0684 45.0786 31.9873 44.2032 32.5094C43.7983 32.7509 43.6047 33.2331 43.7298 33.6874C43.8747 34.2499 44.4405 34.5184 44.9886 34.4567C46.6557 34.4567 48.1805 35.2721 49.108 36.6213C47.5519 38.3883 45.2753 39.5062 42.7412 39.5062ZM51.2267 31.0208C51.2267 32.3757 50.9058 33.6565 50.3385 34.7939C49.4419 33.762 48.2717 33.0146 46.9626 32.6384C47.4335 31.8696 47.6963 30.9752 47.6963 30.0513C47.6963 27.3191 45.4736 25.0964 42.7414 25.0964C40.0092 25.0964 37.7863 27.3192 37.7863 30.0513C37.7863 30.9752 38.0491 31.8696 38.5199 32.6384C37.211 33.0147 36.0409 33.7621 35.1441 34.794C34.5768 33.6566 34.2559 32.3758 34.2559 31.0208C34.2559 26.342 38.0625 22.5355 42.7412 22.5355C47.4201 22.5356 51.2267 26.342 51.2267 31.0208Z" fill="#6655E5"/>
<path d="M64.8561 27.551H57.1515C56.573 27.551 56.104 28.02 56.104 28.5985C56.104 29.1771 56.573 29.6461 57.1515 29.6461H64.8561C65.4346 29.6461 65.9036 29.1771 65.9036 28.5985C65.9036 28.02 65.4346 27.551 64.8561 27.551Z" fill="#6655E5"/>
<path d="M64.8561 32.3957H57.1515C56.573 32.3957 56.104 32.8647 56.104 33.4432C56.104 34.0217 56.573 34.4907 57.1515 34.4907H64.8561C65.4346 34.4907 65.9036 34.0217 65.9036 33.4432C65.9036 32.8648 65.4346 32.3957 64.8561 32.3957Z" fill="#6655E5"/>
</svg>
