<svg width="20" height="20" viewBox="0 0 20 20" xmlns="http://www.w3.org/2000/svg">
<path d="M10 20.0005C15.5242 20.0005 20 15.5247 20 10.0005C20 4.47632 15.5242 0.000488281 10 0.000488281C4.47583 0.000488281 0 4.47632 0 10.0005C0 15.5247 4.47583 20.0005 10 20.0005ZM4.57583 9.78382L14.2175 6.06632C14.665 5.90465 15.0558 6.17549 14.9108 6.85215L14.9117 6.85132L13.27 14.5855C13.1483 15.1338 12.8225 15.2672 12.3667 15.0088L9.86667 13.1663L8.66083 14.328C8.5275 14.4613 8.415 14.5738 8.15667 14.5738L8.33417 12.0297L12.9675 7.84382C13.1692 7.66632 12.9225 7.56632 12.6567 7.74299L6.93083 11.348L4.4625 10.578C3.92667 10.408 3.915 10.0422 4.57583 9.78382Z"/>
</svg>