<svg width="336" height="232" viewBox="0 0 336 232" fill="none" xmlns="http://www.w3.org/2000/svg">
<circle cx="102.857" cy="128.823" r="102.857" fill="#6655E5"/>
<path d="M77.302 13V3.116H80.928C81.8427 3.116 82.5847 3.40067 83.154 3.97C83.7327 4.53 84.022 5.27667 84.022 6.21C84.022 7.14333 83.7327 7.89933 83.154 8.478C82.5753 9.05667 81.8333 9.346 80.928 9.346H78.688V13H77.302ZM78.688 8.142H80.704C81.292 8.142 81.7587 7.96933 82.104 7.624C82.4493 7.27867 82.622 6.80733 82.622 6.21C82.622 5.622 82.4493 5.16 82.104 4.824C81.768 4.488 81.306 4.32 80.718 4.32H78.688V8.142ZM85.5402 11.054V3.116H86.8842V10.83C86.8842 11.2127 86.9496 11.4787 87.0802 11.628C87.2202 11.768 87.4116 11.838 87.6542 11.838C87.7569 11.838 87.8362 11.8333 87.8922 11.824V13.028C87.6962 13.056 87.5469 13.07 87.4442 13.07C86.1749 13.07 85.5402 12.398 85.5402 11.054ZM88.6847 11.068C88.6847 10.5453 88.8293 10.1067 89.1187 9.752C89.408 9.39733 89.7907 9.14533 90.2667 8.996C90.752 8.83733 91.2 8.73 91.6107 8.674C92.0213 8.618 92.4553 8.59 92.9127 8.59H93.2767V8.45C93.2767 7.414 92.7587 6.896 91.7227 6.896C91.0413 6.896 90.3787 7.12467 89.7347 7.582L89.1887 6.588C89.478 6.34533 89.87 6.14467 90.3647 5.986C90.8593 5.82733 91.3493 5.748 91.8347 5.748C92.7307 5.748 93.4213 5.986 93.9067 6.462C94.392 6.938 94.6347 7.624 94.6347 8.52V13H93.3607V12.286L93.4027 11.726H93.3747C93.16 12.146 92.8427 12.4913 92.4227 12.762C92.012 13.0327 91.5547 13.168 91.0507 13.168C90.4067 13.168 89.8513 12.9767 89.3847 12.594C88.918 12.2113 88.6847 11.7027 88.6847 11.068ZM90.0427 10.956C90.0427 11.264 90.1593 11.53 90.3927 11.754C90.626 11.978 90.9527 12.09 91.3727 12.09C91.9327 12.09 92.39 11.8567 92.7447 11.39C93.0993 10.9233 93.2767 10.4053 93.2767 9.836V9.57H92.9267C91.004 9.57 90.0427 10.032 90.0427 10.956ZM96.1688 14.47C96.4301 14.6753 96.7008 14.778 96.9808 14.778C97.5501 14.778 97.9794 14.428 98.2688 13.728L98.6188 12.916L95.6508 5.916H97.1768L98.9548 10.55L99.2208 11.404H99.2488C99.3234 11.0867 99.4028 10.8067 99.4868 10.564L101.209 5.916H102.679L99.3468 14.274C99.1414 14.8153 98.8334 15.226 98.4228 15.506C98.0214 15.7953 97.5641 15.94 97.0508 15.94C96.8174 15.94 96.5888 15.9027 96.3648 15.828C96.1408 15.7533 95.9728 15.6787 95.8608 15.604L95.6928 15.506L96.1688 14.47ZM103.317 9.458C103.317 8.34733 103.653 7.45133 104.325 6.77C104.997 6.08867 105.846 5.748 106.873 5.748C107.834 5.748 108.585 6.06533 109.127 6.7C109.668 7.32533 109.939 8.114 109.939 9.066C109.939 9.18733 109.92 9.37867 109.883 9.64H104.731C104.768 10.3773 105.015 10.956 105.473 11.376C105.939 11.7867 106.504 11.992 107.167 11.992C107.941 11.992 108.637 11.7167 109.253 11.166L109.827 12.16C109.491 12.468 109.071 12.7153 108.567 12.902C108.072 13.0793 107.577 13.168 107.083 13.168C105.981 13.168 105.076 12.818 104.367 12.118C103.667 11.4087 103.317 10.522 103.317 9.458ZM104.773 8.66H108.567C108.548 8.072 108.375 7.61467 108.049 7.288C107.731 6.96133 107.33 6.798 106.845 6.798C106.313 6.798 105.855 6.966 105.473 7.302C105.099 7.62867 104.866 8.08133 104.773 8.66ZM111.571 13V5.916H112.887V7.19L112.845 7.708H112.873C113.051 7.16667 113.34 6.71867 113.741 6.364C114.143 6.00933 114.605 5.832 115.127 5.832C115.221 5.832 115.342 5.84133 115.491 5.86V7.204C115.417 7.18533 115.286 7.176 115.099 7.176C114.39 7.176 113.849 7.46533 113.475 8.044C113.111 8.61333 112.929 9.28533 112.929 10.06V13H111.571ZM116.233 12.132L116.877 11.208C117.446 11.7587 118.142 12.034 118.963 12.034C119.327 12.034 119.616 11.9547 119.831 11.796C120.055 11.628 120.167 11.3993 120.167 11.11C120.167 10.8673 120.041 10.6573 119.789 10.48C119.537 10.3027 119.234 10.1487 118.879 10.018C118.524 9.88733 118.17 9.74267 117.815 9.584C117.46 9.42533 117.157 9.19667 116.905 8.898C116.653 8.59 116.527 8.22133 116.527 7.792C116.527 7.148 116.77 6.64867 117.255 6.294C117.74 5.93 118.347 5.748 119.075 5.748C120.027 5.748 120.792 6.00933 121.371 6.532L120.825 7.512C120.62 7.316 120.349 7.162 120.013 7.05C119.686 6.938 119.36 6.882 119.033 6.882C118.669 6.882 118.375 6.95667 118.151 7.106C117.936 7.25533 117.829 7.47467 117.829 7.764C117.829 8.016 117.955 8.23067 118.207 8.408C118.459 8.58533 118.762 8.73933 119.117 8.87C119.472 8.99133 119.826 9.13133 120.181 9.29C120.545 9.44867 120.853 9.682 121.105 9.99C121.357 10.2887 121.483 10.6527 121.483 11.082C121.483 11.6887 121.245 12.188 120.769 12.58C120.293 12.972 119.682 13.168 118.935 13.168C117.815 13.168 116.914 12.8227 116.233 12.132Z" fill="#151515"/>
<path d="M206.78 13L203.168 3.116H204.652L207.116 10.102L207.494 11.46H207.522C207.653 10.9093 207.779 10.4567 207.9 10.102L210.378 3.116H211.848L208.236 13H206.78ZM213.032 4.488V3.116H214.432V4.488H213.032ZM213.06 13V5.916H214.418V13H213.06ZM216.043 9.458C216.043 8.34733 216.379 7.45133 217.051 6.77C217.723 6.08867 218.572 5.748 219.599 5.748C220.56 5.748 221.312 6.06533 221.853 6.7C222.394 7.32533 222.665 8.114 222.665 9.066C222.665 9.18733 222.646 9.37867 222.609 9.64H217.457C217.494 10.3773 217.742 10.956 218.199 11.376C218.666 11.7867 219.23 11.992 219.893 11.992C220.668 11.992 221.363 11.7167 221.979 11.166L222.553 12.16C222.217 12.468 221.797 12.7153 221.293 12.902C220.798 13.0793 220.304 13.168 219.809 13.168C218.708 13.168 217.802 12.818 217.093 12.118C216.393 11.4087 216.043 10.522 216.043 9.458ZM217.499 8.66H221.293C221.274 8.072 221.102 7.61467 220.775 7.288C220.458 6.96133 220.056 6.798 219.571 6.798C219.039 6.798 218.582 6.966 218.199 7.302C217.826 7.62867 217.592 8.08133 217.499 8.66ZM225.743 13L223.461 5.916H224.903L226.373 10.886L226.555 11.642H226.583C226.639 11.3807 226.704 11.1287 226.779 10.886L228.305 5.93H229.565L231.091 10.886L231.273 11.642H231.301C231.348 11.3807 231.408 11.1287 231.483 10.886L232.967 5.916H234.381L232.113 13H230.601L229.145 8.45L228.935 7.68H228.907C228.851 7.95067 228.786 8.20733 228.711 8.45L227.255 13H225.743ZM235.156 9.458C235.156 8.34733 235.492 7.45133 236.164 6.77C236.836 6.08867 237.686 5.748 238.712 5.748C239.674 5.748 240.425 6.06533 240.966 6.7C241.508 7.32533 241.778 8.114 241.778 9.066C241.778 9.18733 241.76 9.37867 241.722 9.64H236.57C236.608 10.3773 236.855 10.956 237.312 11.376C237.779 11.7867 238.344 11.992 239.006 11.992C239.781 11.992 240.476 11.7167 241.092 11.166L241.666 12.16C241.33 12.468 240.91 12.7153 240.406 12.902C239.912 13.0793 239.417 13.168 238.922 13.168C237.821 13.168 236.916 12.818 236.206 12.118C235.506 11.4087 235.156 10.522 235.156 9.458ZM236.612 8.66H240.406C240.388 8.072 240.215 7.61467 239.888 7.288C239.571 6.96133 239.17 6.798 238.684 6.798C238.152 6.798 237.695 6.966 237.312 7.302C236.939 7.62867 236.706 8.08133 236.612 8.66ZM243.411 13V5.916H244.727V7.19L244.685 7.708H244.713C244.891 7.16667 245.18 6.71867 245.581 6.364C245.983 6.00933 246.445 5.832 246.967 5.832C247.061 5.832 247.182 5.84133 247.331 5.86V7.204C247.257 7.18533 247.126 7.176 246.939 7.176C246.23 7.176 245.689 7.46533 245.315 8.044C244.951 8.61333 244.769 9.28533 244.769 10.06V13H243.411ZM248.073 12.132L248.717 11.208C249.286 11.7587 249.982 12.034 250.803 12.034C251.167 12.034 251.456 11.9547 251.671 11.796C251.895 11.628 252.007 11.3993 252.007 11.11C252.007 10.8673 251.881 10.6573 251.629 10.48C251.377 10.3027 251.074 10.1487 250.719 10.018C250.364 9.88733 250.01 9.74267 249.655 9.584C249.3 9.42533 248.997 9.19667 248.745 8.898C248.493 8.59 248.367 8.22133 248.367 7.792C248.367 7.148 248.61 6.64867 249.095 6.294C249.58 5.93 250.187 5.748 250.915 5.748C251.867 5.748 252.632 6.00933 253.211 6.532L252.665 7.512C252.46 7.316 252.189 7.162 251.853 7.05C251.526 6.938 251.2 6.882 250.873 6.882C250.509 6.882 250.215 6.95667 249.991 7.106C249.776 7.25533 249.669 7.47467 249.669 7.764C249.669 8.016 249.795 8.23067 250.047 8.408C250.299 8.58533 250.602 8.73933 250.957 8.87C251.312 8.99133 251.666 9.13133 252.021 9.29C252.385 9.44867 252.693 9.682 252.945 9.99C253.197 10.2887 253.323 10.6527 253.323 11.082C253.323 11.6887 253.085 12.188 252.609 12.58C252.133 12.972 251.522 13.168 250.775 13.168C249.655 13.168 248.754 12.8227 248.073 12.132Z" fill="#151515"/>
<circle opacity="0.8" cx="232.857" cy="128.823" r="102.857" fill="#EEEEEE"/>
<path d="M224.666 141.723V141.165H227.222V141.723H224.666ZM231.989 144V140.013H230.342V139.473H234.257V140.013H232.601V144H231.989ZM234.697 141.714C234.697 141.048 234.928 140.49 235.39 140.04C235.852 139.59 236.416 139.365 237.082 139.365C237.748 139.365 238.312 139.59 238.774 140.04C239.242 140.49 239.476 141.048 239.476 141.714C239.476 142.392 239.242 142.962 238.774 143.424C238.312 143.88 237.748 144.108 237.082 144.108C236.416 144.108 235.852 143.88 235.39 143.424C234.928 142.962 234.697 142.392 234.697 141.714ZM235.327 141.714C235.327 142.242 235.495 142.68 235.831 143.028C236.173 143.376 236.59 143.55 237.082 143.55C237.574 143.55 237.991 143.376 238.333 143.028C238.675 142.68 238.846 142.242 238.846 141.714C238.846 141.204 238.675 140.778 238.333 140.436C237.991 140.088 237.574 139.914 237.082 139.914C236.59 139.914 236.173 140.088 235.831 140.436C235.495 140.778 235.327 141.204 235.327 141.714ZM239.956 144.036V143.487C240.328 143.427 240.601 143.184 240.775 142.758C240.949 142.326 241.036 141.687 241.036 140.841V139.473H243.808V144H243.196V140.004H241.63V140.841C241.63 141.909 241.495 142.698 241.225 143.208C240.961 143.712 240.538 143.988 239.956 144.036ZM245.278 144V139.473H245.89V141.201H246.871C247.327 141.201 247.705 141.312 248.005 141.534C248.305 141.756 248.455 142.116 248.455 142.614C248.455 143.04 248.32 143.379 248.05 143.631C247.78 143.877 247.381 144 246.853 144H245.278ZM245.89 143.514H246.799C247.483 143.514 247.825 143.211 247.825 142.605C247.825 142.317 247.741 142.092 247.573 141.93C247.405 141.768 247.15 141.687 246.808 141.687H245.89V143.514ZM249.488 144V139.473H250.1V141.39H250.82L252.179 139.473H252.899L251.324 141.624V141.642L253.079 144H252.332L250.829 141.93H250.1V144H249.488ZM253.444 141.714C253.444 141.048 253.675 140.49 254.137 140.04C254.599 139.59 255.163 139.365 255.829 139.365C256.495 139.365 257.059 139.59 257.521 140.04C257.989 140.49 258.223 141.048 258.223 141.714C258.223 142.392 257.989 142.962 257.521 143.424C257.059 143.88 256.495 144.108 255.829 144.108C255.163 144.108 254.599 143.88 254.137 143.424C253.675 142.962 253.444 142.392 253.444 141.714ZM254.074 141.714C254.074 142.242 254.242 142.68 254.578 143.028C254.92 143.376 255.337 143.55 255.829 143.55C256.321 143.55 256.738 143.376 257.08 143.028C257.422 142.68 257.593 142.242 257.593 141.714C257.593 141.204 257.422 140.778 257.08 140.436C256.738 140.088 256.321 139.914 255.829 139.914C255.337 139.914 254.92 140.088 254.578 140.436C254.242 140.778 254.074 141.204 254.074 141.714ZM224.423 152.741C224.423 152.051 224.651 151.484 225.107 151.04C225.563 150.59 226.127 150.365 226.799 150.365C227.111 150.365 227.417 150.422 227.717 150.536C228.017 150.644 228.263 150.803 228.455 151.013L228.14 151.472C227.978 151.304 227.777 151.169 227.537 151.067C227.303 150.965 227.063 150.914 226.817 150.914C226.313 150.914 225.893 151.085 225.557 151.427C225.221 151.769 225.053 152.207 225.053 152.741C225.053 153.269 225.221 153.704 225.557 154.046C225.899 154.382 226.325 154.55 226.835 154.55C227.099 154.55 227.363 154.496 227.627 154.388C227.891 154.274 228.11 154.121 228.284 153.929L228.563 154.388C228.365 154.61 228.107 154.787 227.789 154.919C227.477 155.045 227.147 155.108 226.799 155.108C226.121 155.108 225.554 154.889 225.098 154.451C224.648 154.007 224.423 153.437 224.423 152.741ZM229.436 155L229.805 150.473H230.453L231.812 153.263L232.091 153.902H232.109C232.205 153.668 232.298 153.455 232.388 153.263L233.756 150.473H234.395L234.773 155H234.17L233.945 152.075V151.292H233.927C233.861 151.484 233.765 151.703 233.639 151.949L232.379 154.478H231.821L230.57 151.967L230.273 151.292H230.255C230.267 151.652 230.267 151.913 230.255 152.075L230.03 155H229.436ZM235.752 152.714C235.752 152.048 235.983 151.49 236.445 151.04C236.907 150.59 237.471 150.365 238.137 150.365C238.803 150.365 239.367 150.59 239.829 151.04C240.297 151.49 240.531 152.048 240.531 152.714C240.531 153.392 240.297 153.962 239.829 154.424C239.367 154.88 238.803 155.108 238.137 155.108C237.471 155.108 236.907 154.88 236.445 154.424C235.983 153.962 235.752 153.392 235.752 152.714ZM236.382 152.714C236.382 153.242 236.55 153.68 236.886 154.028C237.228 154.376 237.645 154.55 238.137 154.55C238.629 154.55 239.046 154.376 239.388 154.028C239.73 153.68 239.901 153.242 239.901 152.714C239.901 152.204 239.73 151.778 239.388 151.436C239.046 151.088 238.629 150.914 238.137 150.914C237.645 150.914 237.228 151.088 236.886 151.436C236.55 151.778 236.382 152.204 236.382 152.714ZM242.606 155V151.013H240.959V150.473H244.874V151.013H243.218V155H242.606ZM245.814 156.8V150.473H246.399V150.95L246.372 151.301H246.39C246.528 151.007 246.735 150.779 247.011 150.617C247.293 150.449 247.611 150.365 247.965 150.365C248.571 150.365 249.051 150.584 249.405 151.022C249.759 151.454 249.936 152.024 249.936 152.732C249.936 153.446 249.747 154.022 249.369 154.46C248.991 154.892 248.505 155.108 247.911 155.108C247.593 155.108 247.302 155.03 247.038 154.874C246.774 154.712 246.567 154.49 246.417 154.208H246.399C246.417 154.316 246.426 154.448 246.426 154.604V156.8H245.814ZM246.408 152.75C246.408 153.236 246.537 153.659 246.795 154.019C247.059 154.379 247.41 154.559 247.848 154.559C248.262 154.559 248.61 154.397 248.892 154.073C249.174 153.743 249.315 153.299 249.315 152.741C249.315 152.195 249.18 151.757 248.91 151.427C248.646 151.091 248.301 150.923 247.875 150.923C247.461 150.923 247.113 151.076 246.831 151.382C246.549 151.688 246.408 152.144 246.408 152.75ZM250.655 155L251.744 153.443L251.951 153.173V153.155C251.663 153.095 251.417 152.951 251.213 152.723C251.009 152.489 250.907 152.198 250.907 151.85C250.907 151.406 251.051 151.067 251.339 150.833C251.633 150.593 252.023 150.473 252.509 150.473H254.102V155H253.49V153.263H252.554L251.366 155H250.655ZM252.581 152.786H253.49V150.941H252.626C251.9 150.941 251.537 151.244 251.537 151.85C251.537 152.144 251.633 152.375 251.825 152.543C252.023 152.705 252.275 152.786 252.581 152.786ZM256.695 155V151.013H255.048V150.473H258.963V151.013H257.307V155H256.695Z" fill="#151515"/>
<path d="M225.392 130C225.296 129.456 225.248 128.952 225.248 128.488C225.248 127.656 225.392 126.88 225.68 126.16C225.984 125.44 226.368 124.824 226.832 124.312C227.296 123.784 227.808 123.296 228.368 122.848C228.944 122.4 229.512 121.984 230.072 121.6C230.648 121.216 231.168 120.84 231.632 120.472C232.096 120.104 232.472 119.712 232.76 119.296C233.064 118.864 233.216 118.424 233.216 117.976C233.216 117.256 232.968 116.68 232.472 116.248C231.976 115.816 231.36 115.6 230.624 115.6C230 115.6 229.416 115.792 228.872 116.176C228.328 116.56 227.888 117.04 227.552 117.616L225.248 116.08C225.792 115.088 226.544 114.272 227.504 113.632C228.464 112.992 229.592 112.672 230.888 112.672C232.44 112.672 233.752 113.128 234.824 114.04C235.896 114.936 236.432 116.16 236.432 117.712C236.432 118.448 236.288 119.144 236 119.8C235.728 120.44 235.368 120.992 234.92 121.456C234.472 121.92 233.968 122.36 233.408 122.776C232.864 123.192 232.32 123.576 231.776 123.928C231.232 124.28 230.728 124.632 230.264 124.984C229.8 125.32 229.416 125.688 229.112 126.088C228.824 126.488 228.672 126.904 228.656 127.336H236.696V130H225.392ZM238.904 128.008L240.488 125.632C240.968 126.128 241.552 126.544 242.24 126.88C242.944 127.2 243.656 127.36 244.376 127.36C245.256 127.36 245.984 127.12 246.56 126.64C247.136 126.16 247.424 125.552 247.424 124.816C247.424 123.952 247.08 123.296 246.392 122.848C245.72 122.4 244.848 122.176 243.776 122.176H242.6L241.928 120.592L245.048 116.896C245.24 116.656 245.432 116.432 245.624 116.224C245.832 116 245.992 115.84 246.104 115.744L246.272 115.6V115.552C245.92 115.6 245.416 115.624 244.76 115.624H239.672V112.96H250.064V114.904L245.912 119.728C247.192 119.904 248.28 120.432 249.176 121.312C250.088 122.176 250.544 123.304 250.544 124.696C250.544 126.232 250 127.552 248.912 128.656C247.824 129.744 246.368 130.288 244.544 130.288C243.504 130.288 242.48 130.096 241.472 129.712C240.48 129.312 239.624 128.744 238.904 128.008ZM259.478 119.152C258.71 119.888 257.782 120.256 256.694 120.256C255.606 120.256 254.678 119.888 253.91 119.152C253.158 118.416 252.782 117.52 252.782 116.464C252.782 115.424 253.158 114.536 253.91 113.8C254.678 113.048 255.606 112.672 256.694 112.672C257.766 112.672 258.686 113.048 259.454 113.8C260.238 114.536 260.63 115.424 260.63 116.464C260.63 117.52 260.246 118.416 259.478 119.152ZM253.382 130L266.462 112.96H269.27L256.19 130H253.382ZM255.566 117.592C255.87 117.896 256.246 118.048 256.694 118.048C257.142 118.048 257.518 117.896 257.822 117.592C258.142 117.288 258.302 116.912 258.302 116.464C258.302 116.032 258.142 115.664 257.822 115.36C257.518 115.04 257.142 114.88 256.694 114.88C256.246 114.88 255.87 115.04 255.566 115.36C255.262 115.664 255.11 116.032 255.11 116.464C255.11 116.912 255.262 117.288 255.566 117.592ZM263.222 129.184C262.47 128.448 262.094 127.56 262.094 126.52C262.094 125.48 262.47 124.592 263.222 123.856C263.99 123.104 264.918 122.728 266.006 122.728C267.078 122.728 267.998 123.104 268.766 123.856C269.534 124.592 269.918 125.48 269.918 126.52C269.918 127.56 269.534 128.448 268.766 129.184C268.014 129.92 267.094 130.288 266.006 130.288C264.918 130.288 263.99 129.92 263.222 129.184ZM264.422 126.496C264.422 126.944 264.574 127.32 264.878 127.624C265.182 127.928 265.558 128.08 266.006 128.08C266.454 128.08 266.83 127.928 267.134 127.624C267.454 127.32 267.614 126.944 267.614 126.496C267.614 126.064 267.454 125.696 267.134 125.392C266.83 125.072 266.454 124.912 266.006 124.912C265.558 124.912 265.182 125.072 264.878 125.392C264.574 125.696 264.422 126.064 264.422 126.496Z" fill="#151515"/>
<path d="M64.666 141.723V141.165H67.222V141.723H64.666ZM71.9888 144V140.013H70.3418V139.473H74.2568V140.013H72.6008V144H71.9888ZM74.6974 141.714C74.6974 141.048 74.9284 140.49 75.3904 140.04C75.8524 139.59 76.4164 139.365 77.0824 139.365C77.7484 139.365 78.3124 139.59 78.7744 140.04C79.2424 140.49 79.4764 141.048 79.4764 141.714C79.4764 142.392 79.2424 142.962 78.7744 143.424C78.3124 143.88 77.7484 144.108 77.0824 144.108C76.4164 144.108 75.8524 143.88 75.3904 143.424C74.9284 142.962 74.6974 142.392 74.6974 141.714ZM75.3274 141.714C75.3274 142.242 75.4954 142.68 75.8314 143.028C76.1734 143.376 76.5904 143.55 77.0824 143.55C77.5744 143.55 77.9914 143.376 78.3334 143.028C78.6754 142.68 78.8464 142.242 78.8464 141.714C78.8464 141.204 78.6754 140.778 78.3334 140.436C77.9914 140.088 77.5744 139.914 77.0824 139.914C76.5904 139.914 76.1734 140.088 75.8314 140.436C75.4954 140.778 75.3274 141.204 75.3274 141.714ZM79.9564 144.036V143.487C80.3284 143.427 80.6014 143.184 80.7754 142.758C80.9494 142.326 81.0364 141.687 81.0364 140.841V139.473H83.8084V144H83.1964V140.004H81.6304V140.841C81.6304 141.909 81.4954 142.698 81.2254 143.208C80.9614 143.712 80.5384 143.988 79.9564 144.036ZM85.2778 144V139.473H85.8898V141.201H86.8708C87.3268 141.201 87.7048 141.312 88.0048 141.534C88.3048 141.756 88.4548 142.116 88.4548 142.614C88.4548 143.04 88.3198 143.379 88.0498 143.631C87.7798 143.877 87.3808 144 86.8528 144H85.2778ZM85.8898 143.514H86.7988C87.4828 143.514 87.8248 143.211 87.8248 142.605C87.8248 142.317 87.7408 142.092 87.5728 141.93C87.4048 141.768 87.1498 141.687 86.8078 141.687H85.8898V143.514ZM89.4878 144V139.473H90.0998V141.39H90.8198L92.1788 139.473H92.8988L91.3238 141.624V141.642L93.0788 144H92.3318L90.8288 141.93H90.0998V144H89.4878ZM93.4445 141.714C93.4445 141.048 93.6755 140.49 94.1375 140.04C94.5995 139.59 95.1635 139.365 95.8295 139.365C96.4955 139.365 97.0595 139.59 97.5215 140.04C97.9895 140.49 98.2235 141.048 98.2235 141.714C98.2235 142.392 97.9895 142.962 97.5215 143.424C97.0595 143.88 96.4955 144.108 95.8295 144.108C95.1635 144.108 94.5995 143.88 94.1375 143.424C93.6755 142.962 93.4445 142.392 93.4445 141.714ZM94.0745 141.714C94.0745 142.242 94.2425 142.68 94.5785 143.028C94.9205 143.376 95.3375 143.55 95.8295 143.55C96.3215 143.55 96.7385 143.376 97.0805 143.028C97.4225 142.68 97.5935 142.242 97.5935 141.714C97.5935 141.204 97.4225 140.778 97.0805 140.436C96.7385 140.088 96.3215 139.914 95.8295 139.914C95.3375 139.914 94.9205 140.088 94.5785 140.436C94.2425 140.778 94.0745 141.204 94.0745 141.714ZM64.729 155V150.473H65.323V153.443C65.323 153.857 65.314 154.082 65.296 154.118H65.314C65.338 154.076 65.494 153.851 65.782 153.443L68.005 150.473H68.59V155H67.987V152.021C67.987 151.943 67.987 151.853 67.987 151.751C67.993 151.649 67.999 151.562 68.005 151.49C68.011 151.412 68.014 151.37 68.014 151.364H67.996C67.996 151.376 67.969 151.418 67.915 151.49C67.867 151.562 67.801 151.652 67.717 151.76C67.639 151.868 67.579 151.955 67.537 152.021L65.314 155H64.729ZM70.0464 155V150.473H72.7464V151.004H70.6584V155H70.0464ZM73.6851 156.8V150.473H74.2701V150.95L74.2431 151.301H74.2611C74.3991 151.007 74.6061 150.779 74.8821 150.617C75.1641 150.449 75.4821 150.365 75.8361 150.365C76.4421 150.365 76.9221 150.584 77.2761 151.022C77.6301 151.454 77.8071 152.024 77.8071 152.732C77.8071 153.446 77.6181 154.022 77.2401 154.46C76.8621 154.892 76.3761 155.108 75.7821 155.108C75.4641 155.108 75.1731 155.03 74.9091 154.874C74.6451 154.712 74.4381 154.49 74.2881 154.208H74.2701C74.2881 154.316 74.2971 154.448 74.2971 154.604V156.8H73.6851ZM74.2791 152.75C74.2791 153.236 74.4081 153.659 74.6661 154.019C74.9301 154.379 75.2811 154.559 75.7191 154.559C76.1331 154.559 76.4811 154.397 76.7631 154.073C77.0451 153.743 77.1861 153.299 77.1861 152.741C77.1861 152.195 77.0511 151.757 76.7811 151.427C76.5171 151.091 76.1721 150.923 75.7461 150.923C75.3321 150.923 74.9841 151.076 74.7021 151.382C74.4201 151.688 74.2791 152.144 74.2791 152.75ZM78.5889 153.785C78.5889 152.735 79.5069 152.21 81.3429 152.21H81.6129V152.084C81.6129 151.304 81.2409 150.914 80.4969 150.914C80.0349 150.914 79.6059 151.058 79.2099 151.346L78.9309 150.878C79.1109 150.722 79.3479 150.599 79.6419 150.509C79.9359 150.413 80.2329 150.365 80.5329 150.365C81.0789 150.365 81.4959 150.515 81.7839 150.815C82.0779 151.109 82.2249 151.538 82.2249 152.102V155H81.6399V154.469L81.6669 154.091H81.6489C81.5229 154.379 81.3219 154.622 81.0459 154.82C80.7759 155.012 80.4669 155.108 80.1189 155.108C79.7049 155.108 79.3449 154.991 79.0389 154.757C78.7389 154.523 78.5889 154.199 78.5889 153.785ZM79.2099 153.731C79.2099 153.959 79.2999 154.16 79.4799 154.334C79.6599 154.508 79.9089 154.595 80.2269 154.595C80.6409 154.595 80.9739 154.421 81.2259 154.073C81.4839 153.725 81.6129 153.335 81.6129 152.903V152.696H81.3519C81.1599 152.696 80.9919 152.699 80.8479 152.705C80.7099 152.711 80.5269 152.735 80.2989 152.777C80.0769 152.813 79.8939 152.864 79.7499 152.93C79.6059 152.996 79.4799 153.098 79.3719 153.236C79.2639 153.374 79.2099 153.539 79.2099 153.731ZM83.6343 155V150.473H84.2463V152.471H85.1463C85.2063 151.865 85.4523 151.364 85.8843 150.968C86.3163 150.566 86.8293 150.365 87.4233 150.365C88.0653 150.365 88.6113 150.59 89.0613 151.04C89.5113 151.49 89.7363 152.048 89.7363 152.714C89.7363 153.392 89.5113 153.962 89.0613 154.424C88.6173 154.88 88.0743 155.108 87.4323 155.108C86.8383 155.108 86.3253 154.91 85.8933 154.514C85.4673 154.112 85.2213 153.608 85.1553 153.002H84.2463V155H83.6343ZM85.7583 152.714C85.7583 153.242 85.9203 153.68 86.2443 154.028C86.5683 154.376 86.9643 154.55 87.4323 154.55C87.8943 154.55 88.2873 154.376 88.6113 154.028C88.9353 153.68 89.0973 153.242 89.0973 152.714C89.0973 152.204 88.9353 151.778 88.6113 151.436C88.2873 151.088 87.8943 150.914 87.4323 150.914C86.9643 150.914 86.5683 151.088 86.2443 151.436C85.9203 151.778 85.7583 152.204 85.7583 152.714ZM91.8081 155V151.013H90.1611V150.473H94.0761V151.013H92.4201V155H91.8081Z" fill="white"/>
<path d="M64.72 125.608V123.712L72.088 112.96H75.736V123.04H77.944V125.608H75.736V130H72.688V125.608H64.72ZM67.984 123.04H72.688V117.76L72.808 115.984H72.76C72.504 116.592 72.224 117.112 71.92 117.544L67.984 122.992V123.04ZM79.9154 127.984L81.5234 125.656C82.5634 126.792 83.7714 127.36 85.1474 127.36C86.0114 127.36 86.7554 127.096 87.3794 126.568C88.0194 126.024 88.3394 125.32 88.3394 124.456C88.3394 123.576 88.0194 122.864 87.3794 122.32C86.7394 121.776 85.9234 121.504 84.9314 121.504C83.9874 121.504 83.1074 121.744 82.2914 122.224L80.5634 121.6L81.3554 112.96H90.3314V115.624H84.0434L83.7794 118.432L83.6594 119.224H83.7074C84.1874 118.968 84.7954 118.84 85.5314 118.84C87.3554 118.84 88.8114 119.376 89.8994 120.448C90.9874 121.52 91.5314 122.848 91.5314 124.432C91.5314 126.112 90.9474 127.512 89.7794 128.632C88.6114 129.736 87.1474 130.288 85.3874 130.288C84.3474 130.288 83.3474 130.088 82.3874 129.688C81.4274 129.288 80.6034 128.72 79.9154 127.984ZM100.275 119.152C99.5069 119.888 98.5789 120.256 97.4909 120.256C96.4029 120.256 95.4749 119.888 94.7069 119.152C93.9549 118.416 93.5789 117.52 93.5789 116.464C93.5789 115.424 93.9549 114.536 94.7069 113.8C95.4749 113.048 96.4029 112.672 97.4909 112.672C98.5629 112.672 99.4829 113.048 100.251 113.8C101.035 114.536 101.427 115.424 101.427 116.464C101.427 117.52 101.043 118.416 100.275 119.152ZM94.1789 130L107.259 112.96H110.067L96.9869 130H94.1789ZM96.3629 117.592C96.6669 117.896 97.0429 118.048 97.4909 118.048C97.9389 118.048 98.3149 117.896 98.6189 117.592C98.9389 117.288 99.0989 116.912 99.0989 116.464C99.0989 116.032 98.9389 115.664 98.6189 115.36C98.3149 115.04 97.9389 114.88 97.4909 114.88C97.0429 114.88 96.6669 115.04 96.3629 115.36C96.0589 115.664 95.9069 116.032 95.9069 116.464C95.9069 116.912 96.0589 117.288 96.3629 117.592ZM104.019 129.184C103.267 128.448 102.891 127.56 102.891 126.52C102.891 125.48 103.267 124.592 104.019 123.856C104.787 123.104 105.715 122.728 106.803 122.728C107.875 122.728 108.795 123.104 109.563 123.856C110.331 124.592 110.715 125.48 110.715 126.52C110.715 127.56 110.331 128.448 109.563 129.184C108.811 129.92 107.891 130.288 106.803 130.288C105.715 130.288 104.787 129.92 104.019 129.184ZM105.219 126.496C105.219 126.944 105.371 127.32 105.675 127.624C105.979 127.928 106.355 128.08 106.803 128.08C107.251 128.08 107.627 127.928 107.931 127.624C108.251 127.32 108.411 126.944 108.411 126.496C108.411 126.064 108.251 125.696 107.931 125.392C107.627 125.072 107.251 124.912 106.803 124.912C106.355 124.912 105.979 125.072 105.675 125.392C105.371 125.696 105.219 126.064 105.219 126.496Z" fill="white"/>
<path d="M149.666 141.723V141.165H152.222V141.723H149.666ZM155.864 144V139.473H156.458V142.443C156.458 142.857 156.449 143.082 156.431 143.118H156.449C156.473 143.076 156.629 142.851 156.917 142.443L159.14 139.473H159.725V144H159.122V141.021C159.122 140.943 159.122 140.853 159.122 140.751C159.128 140.649 159.134 140.562 159.14 140.49C159.146 140.412 159.149 140.37 159.149 140.364H159.131C159.131 140.376 159.104 140.418 159.05 140.49C159.002 140.562 158.936 140.652 158.852 140.76C158.774 140.868 158.714 140.955 158.672 141.021L156.449 144H155.864ZM161.181 144V139.473H163.881V140.004H161.793V144H161.181ZM164.82 145.8V139.473H165.405V139.95L165.378 140.301H165.396C165.534 140.007 165.741 139.779 166.017 139.617C166.299 139.449 166.617 139.365 166.971 139.365C167.577 139.365 168.057 139.584 168.411 140.022C168.765 140.454 168.942 141.024 168.942 141.732C168.942 142.446 168.753 143.022 168.375 143.46C167.997 143.892 167.511 144.108 166.917 144.108C166.599 144.108 166.308 144.03 166.044 143.874C165.78 143.712 165.573 143.49 165.423 143.208H165.405C165.423 143.316 165.432 143.448 165.432 143.604V145.8H164.82ZM165.414 141.75C165.414 142.236 165.543 142.659 165.801 143.019C166.065 143.379 166.416 143.559 166.854 143.559C167.268 143.559 167.616 143.397 167.898 143.073C168.18 142.743 168.321 142.299 168.321 141.741C168.321 141.195 168.186 140.757 167.916 140.427C167.652 140.091 167.307 139.923 166.881 139.923C166.467 139.923 166.119 140.076 165.837 140.382C165.555 140.688 165.414 141.144 165.414 141.75ZM169.724 142.785C169.724 141.735 170.642 141.21 172.478 141.21H172.748V141.084C172.748 140.304 172.376 139.914 171.632 139.914C171.17 139.914 170.741 140.058 170.345 140.346L170.066 139.878C170.246 139.722 170.483 139.599 170.777 139.509C171.071 139.413 171.368 139.365 171.668 139.365C172.214 139.365 172.631 139.515 172.919 139.815C173.213 140.109 173.36 140.538 173.36 141.102V144H172.775V143.469L172.802 143.091H172.784C172.658 143.379 172.457 143.622 172.181 143.82C171.911 144.012 171.602 144.108 171.254 144.108C170.84 144.108 170.48 143.991 170.174 143.757C169.874 143.523 169.724 143.199 169.724 142.785ZM170.345 142.731C170.345 142.959 170.435 143.16 170.615 143.334C170.795 143.508 171.044 143.595 171.362 143.595C171.776 143.595 172.109 143.421 172.361 143.073C172.619 142.725 172.748 142.335 172.748 141.903V141.696H172.487C172.295 141.696 172.127 141.699 171.983 141.705C171.845 141.711 171.662 141.735 171.434 141.777C171.212 141.813 171.029 141.864 170.885 141.93C170.741 141.996 170.615 142.098 170.507 142.236C170.399 142.374 170.345 142.539 170.345 142.731ZM174.769 144V139.473H175.381V141.471H176.281C176.341 140.865 176.587 140.364 177.019 139.968C177.451 139.566 177.964 139.365 178.558 139.365C179.2 139.365 179.746 139.59 180.196 140.04C180.646 140.49 180.871 141.048 180.871 141.714C180.871 142.392 180.646 142.962 180.196 143.424C179.752 143.88 179.209 144.108 178.567 144.108C177.973 144.108 177.46 143.91 177.028 143.514C176.602 143.112 176.356 142.608 176.29 142.002H175.381V144H174.769ZM176.893 141.714C176.893 142.242 177.055 142.68 177.379 143.028C177.703 143.376 178.099 143.55 178.567 143.55C179.029 143.55 179.422 143.376 179.746 143.028C180.07 142.68 180.232 142.242 180.232 141.714C180.232 141.204 180.07 140.778 179.746 140.436C179.422 140.088 179.029 139.914 178.567 139.914C178.099 139.914 177.703 140.088 177.379 140.436C177.055 140.778 176.893 141.204 176.893 141.714ZM182.943 144V140.013H181.296V139.473H185.211V140.013H183.555V144H182.943ZM149.729 155V150.473H150.323V153.443C150.323 153.857 150.314 154.082 150.296 154.118H150.314C150.338 154.076 150.494 153.851 150.782 153.443L153.005 150.473H153.59V155H152.987V152.021C152.987 151.943 152.987 151.853 152.987 151.751C152.993 151.649 152.999 151.562 153.005 151.49C153.011 151.412 153.014 151.37 153.014 151.364H152.996C152.996 151.376 152.969 151.418 152.915 151.49C152.867 151.562 152.801 151.652 152.717 151.76C152.639 151.868 152.579 151.955 152.537 152.021L150.314 155H149.729ZM156.99 152.741C156.99 152.051 157.218 151.484 157.674 151.04C158.13 150.59 158.694 150.365 159.366 150.365C159.678 150.365 159.984 150.422 160.284 150.536C160.584 150.644 160.83 150.803 161.022 151.013L160.707 151.472C160.545 151.304 160.344 151.169 160.104 151.067C159.87 150.965 159.63 150.914 159.384 150.914C158.88 150.914 158.46 151.085 158.124 151.427C157.788 151.769 157.62 152.207 157.62 152.741C157.62 153.269 157.788 153.704 158.124 154.046C158.466 154.382 158.892 154.55 159.402 154.55C159.666 154.55 159.93 154.496 160.194 154.388C160.458 154.274 160.677 154.121 160.851 153.929L161.13 154.388C160.932 154.61 160.674 154.787 160.356 154.919C160.044 155.045 159.714 155.108 159.366 155.108C158.688 155.108 158.121 154.889 157.665 154.451C157.215 154.007 156.99 153.437 156.99 152.741ZM162.003 155L162.372 150.473H163.02L164.379 153.263L164.658 153.902H164.676C164.772 153.668 164.865 153.455 164.955 153.263L166.323 150.473H166.962L167.34 155H166.737L166.512 152.075V151.292H166.494C166.428 151.484 166.332 151.703 166.206 151.949L164.946 154.478H164.388L163.137 151.967L162.84 151.292H162.822C162.834 151.652 162.834 151.913 162.822 152.075L162.597 155H162.003ZM168.319 152.714C168.319 152.048 168.55 151.49 169.012 151.04C169.474 150.59 170.038 150.365 170.704 150.365C171.37 150.365 171.934 150.59 172.396 151.04C172.864 151.49 173.098 152.048 173.098 152.714C173.098 153.392 172.864 153.962 172.396 154.424C171.934 154.88 171.37 155.108 170.704 155.108C170.038 155.108 169.474 154.88 169.012 154.424C168.55 153.962 168.319 153.392 168.319 152.714ZM168.949 152.714C168.949 153.242 169.117 153.68 169.453 154.028C169.795 154.376 170.212 154.55 170.704 154.55C171.196 154.55 171.613 154.376 171.955 154.028C172.297 153.68 172.468 153.242 172.468 152.714C172.468 152.204 172.297 151.778 171.955 151.436C171.613 151.088 171.196 150.914 170.704 150.914C170.212 150.914 169.795 151.088 169.453 151.436C169.117 151.778 168.949 152.204 168.949 152.714ZM175.173 155V151.013H173.526V150.473H177.441V151.013H175.785V155H175.173ZM178.381 156.8V150.473H178.966V150.95L178.939 151.301H178.957C179.095 151.007 179.302 150.779 179.578 150.617C179.86 150.449 180.178 150.365 180.532 150.365C181.138 150.365 181.618 150.584 181.972 151.022C182.326 151.454 182.503 152.024 182.503 152.732C182.503 153.446 182.314 154.022 181.936 154.46C181.558 154.892 181.072 155.108 180.478 155.108C180.16 155.108 179.869 155.03 179.605 154.874C179.341 154.712 179.134 154.49 178.984 154.208H178.966C178.984 154.316 178.993 154.448 178.993 154.604V156.8H178.381ZM178.975 152.75C178.975 153.236 179.104 153.659 179.362 154.019C179.626 154.379 179.977 154.559 180.415 154.559C180.829 154.559 181.177 154.397 181.459 154.073C181.741 153.743 181.882 153.299 181.882 152.741C181.882 152.195 181.747 151.757 181.477 151.427C181.213 151.091 180.868 150.923 180.442 150.923C180.028 150.923 179.68 151.076 179.398 151.382C179.116 151.688 178.975 152.144 178.975 152.75ZM183.222 155L184.311 153.443L184.518 153.173V153.155C184.23 153.095 183.984 152.951 183.78 152.723C183.576 152.489 183.474 152.198 183.474 151.85C183.474 151.406 183.618 151.067 183.906 150.833C184.2 150.593 184.59 150.473 185.076 150.473H186.669V155H186.057V153.263H185.121L183.933 155H183.222ZM185.148 152.786H186.057V150.941H185.193C184.467 150.941 184.104 151.244 184.104 151.85C184.104 152.144 184.2 152.375 184.392 152.543C184.59 152.705 184.842 152.786 185.148 152.786ZM189.262 155V151.013H187.615V150.473H191.53V151.013H189.874V155H189.262Z" fill="#151515"/>
<path d="M149.912 128.008L151.496 125.632C151.976 126.128 152.56 126.544 153.248 126.88C153.952 127.2 154.664 127.36 155.384 127.36C156.264 127.36 156.992 127.12 157.568 126.64C158.144 126.16 158.432 125.552 158.432 124.816C158.432 123.952 158.088 123.296 157.4 122.848C156.728 122.4 155.856 122.176 154.784 122.176H153.608L152.936 120.592L156.056 116.896C156.248 116.656 156.44 116.432 156.632 116.224C156.84 116 157 115.84 157.112 115.744L157.28 115.6V115.552C156.928 115.6 156.424 115.624 155.768 115.624H150.68V112.96H161.072V114.904L156.92 119.728C158.2 119.904 159.288 120.432 160.184 121.312C161.096 122.176 161.552 123.304 161.552 124.696C161.552 126.232 161.008 127.552 159.92 128.656C158.832 129.744 157.376 130.288 155.552 130.288C154.512 130.288 153.488 130.096 152.48 129.712C151.488 129.312 150.632 128.744 149.912 128.008ZM164.15 130C164.054 129.456 164.006 128.952 164.006 128.488C164.006 127.656 164.15 126.88 164.438 126.16C164.742 125.44 165.126 124.824 165.59 124.312C166.054 123.784 166.566 123.296 167.126 122.848C167.702 122.4 168.27 121.984 168.83 121.6C169.406 121.216 169.926 120.84 170.39 120.472C170.854 120.104 171.23 119.712 171.518 119.296C171.822 118.864 171.974 118.424 171.974 117.976C171.974 117.256 171.726 116.68 171.23 116.248C170.734 115.816 170.118 115.6 169.382 115.6C168.758 115.6 168.174 115.792 167.63 116.176C167.086 116.56 166.646 117.04 166.31 117.616L164.006 116.08C164.55 115.088 165.302 114.272 166.262 113.632C167.222 112.992 168.35 112.672 169.646 112.672C171.198 112.672 172.51 113.128 173.582 114.04C174.654 114.936 175.19 116.16 175.19 117.712C175.19 118.448 175.046 119.144 174.758 119.8C174.486 120.44 174.126 120.992 173.678 121.456C173.23 121.92 172.726 122.36 172.166 122.776C171.622 123.192 171.078 123.576 170.534 123.928C169.99 124.28 169.486 124.632 169.022 124.984C168.558 125.32 168.174 125.688 167.87 126.088C167.582 126.488 167.43 126.904 167.414 127.336H175.454V130H164.15ZM184.478 119.152C183.71 119.888 182.782 120.256 181.694 120.256C180.606 120.256 179.678 119.888 178.91 119.152C178.158 118.416 177.782 117.52 177.782 116.464C177.782 115.424 178.158 114.536 178.91 113.8C179.678 113.048 180.606 112.672 181.694 112.672C182.766 112.672 183.686 113.048 184.454 113.8C185.238 114.536 185.63 115.424 185.63 116.464C185.63 117.52 185.246 118.416 184.478 119.152ZM178.382 130L191.462 112.96H194.27L181.19 130H178.382ZM180.566 117.592C180.87 117.896 181.246 118.048 181.694 118.048C182.142 118.048 182.518 117.896 182.822 117.592C183.142 117.288 183.302 116.912 183.302 116.464C183.302 116.032 183.142 115.664 182.822 115.36C182.518 115.04 182.142 114.88 181.694 114.88C181.246 114.88 180.87 115.04 180.566 115.36C180.262 115.664 180.11 116.032 180.11 116.464C180.11 116.912 180.262 117.288 180.566 117.592ZM188.222 129.184C187.47 128.448 187.094 127.56 187.094 126.52C187.094 125.48 187.47 124.592 188.222 123.856C188.99 123.104 189.918 122.728 191.006 122.728C192.078 122.728 192.998 123.104 193.766 123.856C194.534 124.592 194.918 125.48 194.918 126.52C194.918 127.56 194.534 128.448 193.766 129.184C193.014 129.92 192.094 130.288 191.006 130.288C189.918 130.288 188.99 129.92 188.222 129.184ZM189.422 126.496C189.422 126.944 189.574 127.32 189.878 127.624C190.182 127.928 190.558 128.08 191.006 128.08C191.454 128.08 191.83 127.928 192.134 127.624C192.454 127.32 192.614 126.944 192.614 126.496C192.614 126.064 192.454 125.696 192.134 125.392C191.83 125.072 191.454 124.912 191.006 124.912C190.558 124.912 190.182 125.072 189.878 125.392C189.574 125.696 189.422 126.064 189.422 126.496Z" fill="#151515"/>
</svg>
