<svg width="12" height="12" viewBox="0 0 12 12" fill="none" xmlns="http://www.w3.org/2000/svg">
<path d="M3.2946 10.9156C2.74381 10.2897 2.19304 9.63877 1.84252 8.86265C1.49203 8.03648 1.39188 7.08512 1.56714 6.18384C1.74239 5.28255 2.14295 4.43133 2.71879 3.7053C2.66872 4.3312 2.89405 4.98212 3.31965 5.45781C3.06928 4.25609 3.46986 2.95423 4.271 2.00288C5.07213 1.05152 6.17372 0.4256 7.32535 0C6.74954 0.600858 6.67443 1.55221 6.89975 2.35337C7.12507 3.1545 7.60076 3.85551 8.02636 4.58154C8.45196 5.30757 8.85254 6.05864 8.87758 6.88482C9.1029 6.45922 9.35327 6.0336 9.50348 5.55794C9.6537 5.08225 9.72881 4.58154 9.60363 4.10585C10.0543 4.65665 10.3046 5.20742 10.4298 5.90843C10.555 6.60944 10.53 7.33547 10.4549 8.03647C10.3547 8.81259 10.1544 9.61373 9.72883 10.2646C9.22812 11.0408 8.42696 11.5915 7.55072 11.892C5.99846 12.1674 4.47128 11.9421 3.2946 10.9156Z" fill="#F3705A"/>
<path d="M5.19731 11.8419C7.25023 12.6431 9.27812 10.2146 8.15151 8.33693C8.15151 8.31188 8.12647 8.31188 8.12647 8.28686C8.22662 9.31332 7.97626 10.0644 7.50057 10.49C7.75093 9.88916 7.57568 9.18815 7.27525 8.58729C6.97482 8.01148 6.54922 7.48573 6.22375 6.93493C5.89827 6.35912 5.64793 5.70817 5.79815 5.05725C5.19729 5.50789 4.77169 6.18386 4.59643 6.90989C4.42117 7.63592 4.52132 8.43708 4.8468 9.11304C4.47126 8.83766 4.19587 8.38701 4.17083 7.91132C3.77025 8.38701 3.51991 9.01289 3.54493 9.63879C3.54495 10.6152 4.32105 11.4914 5.19731 11.8419Z" fill="#FFD15C"/>
</svg>
