<svg width="86" height="86" viewBox="0 0 86 86" fill="none" xmlns="http://www.w3.org/2000/svg">
<path d="M85.7415 25.2714C85.5322 20.6943 84.8052 17.5685 83.7423 14.8337C82.6629 11.9645 80.9701 9.36557 78.7826 7.21741C76.6351 5.02988 74.0355 3.33641 71.1663 2.25642C68.4309 1.19415 65.3057 0.467819 60.7286 0.259827C56.1429 0.0498657 54.6778 0 43 0C31.3222 0 29.8571 0.0498657 25.2714 0.258514C20.6943 0.467819 17.5691 1.19481 14.8337 2.25774C11.9645 3.33707 9.36557 5.02988 7.21741 7.21741C5.02988 9.36491 3.33641 11.9638 2.25642 14.8331C1.19415 17.5685 0.467819 20.6943 0.259827 25.2708C0.0498657 29.8571 0 31.3216 0 42.9993C0 54.6778 0.0498657 56.1429 0.259827 60.7286C0.468475 65.3051 1.19547 68.4309 2.25839 71.1663C3.33772 74.0349 5.03053 76.6344 7.21806 78.7819C9.36557 80.9695 11.9651 82.6623 14.8344 83.7416C17.5691 84.8052 20.6949 85.5315 25.2721 85.7408C29.8584 85.9501 31.3229 85.9993 43.0007 85.9993C54.6784 85.9993 56.1436 85.9501 60.7292 85.7408C65.3064 85.5315 68.4315 84.8052 71.1669 83.7416C76.9428 81.5081 81.5088 76.9422 83.7423 71.1663C84.8058 68.4309 85.5322 65.3051 85.7415 60.7286C85.9501 56.1422 86 54.6778 86 43C86 31.3216 85.9501 29.8571 85.7415 25.2714ZM78.0011 60.3762C77.8102 64.5689 77.1095 66.8457 76.5209 68.3607C75.0742 72.1111 72.1104 75.0748 68.36 76.5216C66.845 77.1101 64.5682 77.8109 60.3756 78.0018C55.8424 78.2091 54.4822 78.2524 43 78.2524C31.5171 78.2524 30.1576 78.2091 25.6238 78.0018C21.4318 77.8109 19.155 77.1101 17.6393 76.5216C15.772 75.832 14.0825 74.733 12.6954 73.3046C11.267 71.9175 10.168 70.2287 9.47842 68.3607C8.88988 66.8457 8.18913 64.5689 7.9982 60.3762C7.79152 55.8424 7.74756 54.4822 7.74756 43.0007C7.74756 31.5184 7.79152 30.1589 7.9982 25.6244C8.18979 21.4318 8.88988 19.155 9.47842 17.64C10.168 15.772 11.2677 14.0825 12.6954 12.6954C14.0825 11.267 15.772 10.168 17.64 9.47908C19.155 8.88988 21.4318 8.18979 25.6244 7.9982C30.1583 7.79152 31.5184 7.74756 43 7.74756H42.9993C54.4809 7.74756 55.8411 7.79152 60.3756 7.99886C64.5682 8.18979 66.8443 8.89053 68.36 9.47908C70.2273 10.1687 71.9169 11.2677 73.3039 12.6954C74.7323 14.0825 75.8313 15.772 76.5203 17.64C77.1095 19.155 77.8102 21.4318 78.0011 25.6244C78.2078 30.1583 78.2518 31.5184 78.2518 43C78.2518 54.4822 78.2085 55.8417 78.0011 60.3762Z" fill="url(#paint0_linear)"/>
<path d="M42.9994 20.9187C30.8046 20.9187 20.9187 30.8052 20.9187 43C20.9187 55.1948 30.8046 65.0807 42.9994 65.0807C55.1948 65.0807 65.0807 55.1948 65.0807 43C65.0807 30.8052 55.1948 20.9187 42.9994 20.9187ZM42.9994 57.3331C35.0838 57.3325 28.6663 50.9156 28.6669 42.9994C28.6669 35.0838 35.0838 28.6663 43 28.6663C50.9162 28.6669 57.3331 35.0838 57.3331 42.9994C57.3331 50.9156 50.9156 57.3331 42.9994 57.3331Z" fill="url(#paint1_linear)"/>
<path d="M71.1132 20.0467C71.1132 22.8962 68.803 25.2065 65.9534 25.2065C63.1032 25.2065 60.793 22.8962 60.793 20.0467C60.793 17.1965 63.1032 14.8862 65.9534 14.8862C68.803 14.8862 71.1132 17.1965 71.1132 20.0467Z" fill="url(#paint2_linear)"/>
<defs>
<linearGradient id="paint0_linear" x1="7.21697" y1="78.7823" x2="78.783" y2="7.21628" gradientUnits="userSpaceOnUse">
<stop stop-color="#FFD600"/>
<stop offset="0.5" stop-color="#FF0100"/>
<stop offset="1" stop-color="#D800B9"/>
</linearGradient>
<linearGradient id="paint1_linear" x1="27.3862" y1="58.6134" x2="58.6134" y2="27.3861" gradientUnits="userSpaceOnUse">
<stop stop-color="#FF6400"/>
<stop offset="0.5" stop-color="#FF0100"/>
<stop offset="1" stop-color="#FD0056"/>
</linearGradient>
<linearGradient id="paint2_linear" x1="62.3046" y1="23.695" x2="69.6018" y2="16.3978" gradientUnits="userSpaceOnUse">
<stop stop-color="#F30072"/>
<stop offset="1" stop-color="#E50097"/>
</linearGradient>
</defs>
</svg>
