<svg width="85" height="32" viewBox="0 0 85 32" fill="none" xmlns="http://www.w3.org/2000/svg">
<g clip-path="url(#clip0)">
<path d="M29.0529 0.0173652H34.3207C34.9793 0.017532 35.6109 0.279801 36.0766 0.746512C36.5423 1.21322 36.8041 1.84617 36.8042 2.5062H35.2275C35.2271 2.2653 35.1314 2.03439 34.9615 1.86406C34.7915 1.69372 34.5611 1.59784 34.3207 1.59742L29.0039 1.59585L20.428 1.57918C17.4146 1.57918 14.4027 1.58358 11.3922 1.59239C10.6517 1.59426 9.91338 1.67109 9.18834 1.82171C4.88013 2.72734 1.57293 6.571 1.5767 11.1772C1.57697 11.6751 1.61485 12.1722 1.69001 12.6644C2.25816 16.2819 4.21185 18.7173 7.58528 20.2174C8.67198 20.6934 9.81393 20.9227 11.035 20.9233H11.1574L11.1674 21.7132L10.3871 21.6006C10.4499 21.1765 10.4813 20.766 10.5776 20.3109C11.2682 17.0551 14.1046 14.7632 17.4359 14.7632C18.8518 14.7609 20.2677 14.7599 21.6836 14.7604H25.7517C26.6306 14.7604 27.5088 14.7604 28.3865 14.7604C28.7591 14.7604 29.1031 14.7604 29.4088 14.7248C32.6451 14.3659 35.0869 11.5952 35.219 8.45083L35.2504 7.69588H36.0141V8.48575H35.2256V2.5062H36.8023L36.7929 8.51941L36.0054 9.27436V8.48512L36.7929 8.51941C36.6209 12.432 33.6226 15.8321 29.5837 16.2954C29.1555 16.3433 28.7537 16.3401 28.3859 16.3407H25.7491H21.6811C20.2658 16.3407 18.8508 16.3416 17.4359 16.3433C14.8284 16.3521 12.6647 18.1048 12.117 20.6421C12.0476 20.9617 12.0131 21.3451 11.9453 21.8249L11.8492 22.4933L11.1753 22.5021H11.0325C9.61179 22.5021 8.24101 22.2303 6.95184 21.6638C3.17034 20.0265 0.736712 17.0076 0.131208 12.9022C0.044098 12.3314 0.000236668 11.7547 0 11.1772C0.00345285 5.7956 3.84271 1.33224 8.86534 0.275308C9.69516 0.102664 10.5403 0.0146619 11.3878 0.0126468C14.4012 0.0019516 17.4146 -0.00255716 20.428 -0.000879481" fill="url(#paint0_linear)"/>
<path d="M28.3134 5.53643C28.3137 5.87246 28.2145 6.20103 28.0284 6.48058C27.8424 6.76012 27.5778 6.97809 27.2681 7.1069C26.9584 7.2357 26.6175 7.26957 26.2886 7.2042C25.9597 7.13884 25.6575 6.97718 25.4203 6.73968C25.1831 6.50219 25.0215 6.19952 24.956 5.86997C24.8904 5.54042 24.9239 5.1988 25.0522 4.88832C25.1804 4.57784 25.3977 4.31246 25.6764 4.12574C25.9552 3.93902 26.283 3.83936 26.6183 3.83936C27.0679 3.83936 27.499 4.01832 27.8169 4.33688C28.1348 4.65544 28.3134 5.08749 28.3134 5.538" fill="white"/>
<path d="M22.5377 22.8545C21.6801 22.8545 21.0451 22.0995 19.7242 22.0995C18.5747 22.0995 18.0257 22.4949 18.0257 23.1826C18.0257 23.8186 18.6435 24.1625 19.5183 24.4547C20.5476 24.7815 21.8173 25.0049 22.7778 25.6925C23.5327 26.2257 24.1159 27.0335 24.1159 28.3229C24.1159 30.6441 22.1604 32.0033 19.6213 32.0033C18.711 32.0033 17.494 31.8315 16.5162 31.4188C15.8643 31.1439 15.3667 30.7312 15.3667 30.0951C15.3656 29.939 15.3954 29.7843 15.4545 29.6398C15.5135 29.4954 15.6007 29.3641 15.7108 29.2537C15.821 29.1434 15.9519 29.056 16.0961 28.9968C16.2402 28.9376 16.3947 28.9078 16.5504 28.9089C17.3038 28.9089 18.043 29.8715 19.5871 29.8715C21.0624 29.8715 21.4227 29.1323 21.4227 28.5305C21.4227 27.8256 20.805 27.4475 19.9644 27.1552C19.0381 26.8114 17.8713 26.6051 16.8763 25.969C16.0356 25.4361 15.4182 24.5937 15.4182 23.2354C15.4182 21.3443 16.9623 19.969 19.8614 19.969C20.6336 19.969 21.7658 20.0722 22.6064 20.433C23.2239 20.6909 23.7051 21.0863 23.7051 21.7054C23.7041 22.3389 23.2066 22.8545 22.5377 22.8545Z" fill="white"/>
<path d="M27.1519 21.1701C27.1519 20.4998 27.7009 19.9669 28.3871 19.9669C29.0733 19.9669 29.6223 20.4998 29.6223 21.1701V24.8505H34.9233V21.1701C34.9233 20.4998 35.4883 19.9669 36.1585 19.9669C36.8447 19.9669 37.3937 20.4998 37.3937 21.1701V30.7958C37.3937 31.4661 36.8287 31.999 36.1585 31.999C35.4883 31.999 34.9233 31.4661 34.9233 30.7958V27.0314H29.6226V30.7958C29.6226 31.4661 29.0394 31.999 28.3874 31.999C27.7012 31.999 27.1522 31.4661 27.1522 30.7958L27.1519 21.1701Z" fill="white"/>
<path d="M43.4839 30.7959C43.4839 31.4662 42.9007 31.9991 42.2487 31.9991C41.5453 31.9991 41.0135 31.4662 41.0135 30.7959V21.3237C41.0135 20.6534 41.5453 20.1205 42.2487 20.1205H46.2804C47.4126 20.1205 48.4419 20.3265 49.231 20.9113C50.0889 21.5473 50.5864 22.6477 50.5864 23.9198C50.5864 25.0374 50.1576 26.0346 49.2825 26.7908C49.0285 26.9989 48.7524 27.1782 48.4591 27.3256L50.3805 30.0937C50.5155 30.2846 50.5875 30.5131 50.5864 30.7471C50.5864 31.452 50.0374 32.0019 49.3512 32.0019C48.871 32.0019 48.5448 31.7786 48.3047 31.4174L45.8858 27.7556H43.4839V30.7959ZM43.4839 22.2167V25.6735H46.0578C46.5554 25.6735 47.0187 25.6046 47.379 25.3813C47.8078 25.106 48.0825 24.642 48.0825 23.9541C48.0825 23.2661 47.8251 22.8194 47.4305 22.5445C47.0538 22.3039 46.5899 22.2177 46.0924 22.2177L43.4839 22.2167Z" fill="white"/>
<path d="M53.8801 21.1701C53.8801 20.4998 54.4291 19.9669 55.1153 19.9669C55.8014 19.9669 56.3504 20.4998 56.3504 21.1701V30.7958C56.3504 31.4661 55.7672 31.999 55.1153 31.999C54.4291 31.999 53.8801 31.4661 53.8801 30.7958V21.1701Z" fill="white"/>
<path d="M61.514 19.9657C62.1318 19.9657 62.5951 20.2749 62.8694 20.7392L65.9918 26.189L69.1483 20.7392C69.4057 20.2749 69.8703 19.9657 70.4864 19.9657C71.43 19.9657 72.0477 20.636 72.0477 21.4784V30.8484C72.0477 31.4844 71.5675 32 70.8468 32C70.1261 32 69.6631 31.4844 69.6631 30.8484V24.4184L67.21 28.5624C66.9695 28.9748 66.5922 29.3174 66.009 29.3174C65.4258 29.3174 65.0482 28.9736 64.8081 28.5624L62.355 24.419V30.8484C62.355 31.4844 61.8744 32 61.154 32C60.4336 32 59.9703 31.4844 59.9703 30.8484V21.4784C59.9703 20.6354 60.5708 19.9657 61.514 19.9657Z" fill="white"/>
<path d="M80.7797 20.1205C81.7578 20.1205 82.7355 20.3092 83.5762 20.9972C84.451 21.7207 85 22.8367 85 24.212C85 25.6219 84.3995 26.7915 83.4559 27.5131C82.6326 28.1491 81.7063 28.3039 80.7797 28.3039H78.1379V30.7959C78.1379 31.4662 77.5544 31.9991 76.9027 31.9991C76.2163 31.9991 75.6676 31.4662 75.6676 30.7959V21.3237C75.6676 20.6534 76.2163 20.1205 76.9027 20.1205H80.7797ZM81.7578 22.6304C81.3974 22.3724 80.9514 22.2866 80.4538 22.2866H78.1379V26.1375H80.4024C80.8826 26.1375 81.3632 26.0689 81.7232 25.8283C82.2038 25.5187 82.4954 24.9859 82.4954 24.212C82.4954 23.4382 82.2038 22.9226 81.7578 22.6304Z" fill="white"/>
</g>
<defs>
<linearGradient id="paint0_linear" x1="-0.014502" y1="11.3175" x2="36.9724" y2="11.3175" gradientUnits="userSpaceOnUse">
<stop stop-color="#FF53C9"/>
<stop offset="0.21" stop-color="#FD7CA7"/>
<stop offset="0.45" stop-color="#FCA486"/>
<stop offset="0.67" stop-color="#FBC06E"/>
<stop offset="0.86" stop-color="#FAD25F"/>
<stop offset="1" stop-color="#FAD85A"/>
</linearGradient>
<clipPath id="clip0">
<rect width="85" height="32" fill="white"/>
</clipPath>
</defs>
</svg>
