<svg width="40" height="40" viewBox="0 0 40 40" fill="none" xmlns="http://www.w3.org/2000/svg">
<g clip-path="url(#clip0)">
<path d="M39.6059 0.103107C39.3622 -0.0359553 39.0625 -0.0336116 38.8211 0.109201L24.5044 8.57514C24.133 8.79475 24.01 9.27381 24.2296 9.64522C24.4491 10.0165 24.9282 10.1396 25.2996 9.92006L35.5717 3.84592L16.4384 23.6985L6.92215 20.7871L19.3413 13.4433C19.7127 13.2237 19.8357 12.7446 19.6161 12.3732C19.3966 12.0019 18.9175 11.8787 18.5461 12.0983L4.60238 20.3436C4.33598 20.5012 4.18762 20.8011 4.22426 21.1085C4.2609 21.4159 4.47551 21.6726 4.77145 21.7632L16.1362 25.2401L21.15 34.3661C21.1553 34.3755 21.1607 34.3835 21.1662 34.3906C21.2499 34.5301 21.3753 34.6441 21.5317 34.7099C21.6296 34.7511 21.7325 34.7712 21.8346 34.7712C22.0349 34.7712 22.232 34.6941 22.3808 34.5486L28.146 28.9142L38.9902 32.2319C39.0652 32.2548 39.1421 32.2661 39.2187 32.2661C39.384 32.2661 39.5473 32.2136 39.6834 32.1129C39.8825 31.9655 40 31.7325 40 31.4848V0.781701C40 0.501154 39.8496 0.242092 39.6059 0.103107ZM21.1926 25.7215C21.1021 25.8523 21.0536 26.0074 21.0536 26.1664V30.9454L17.63 24.7137L32.78 8.9942L21.1926 25.7215ZM22.6161 32.134V27.2225L26.4435 28.3934L22.6161 32.134ZM38.4375 30.4288L23.0861 25.7323L38.4375 3.57108V30.4288Z" fill="white"/>
<path d="M12.8456 27.1548C12.5404 26.8497 12.0459 26.8497 11.7407 27.1548L4.44756 34.4479C4.14248 34.753 4.14248 35.2477 4.44756 35.5528C4.60021 35.7053 4.80014 35.7816 5.00006 35.7816C5.19998 35.7816 5.3999 35.7053 5.55248 35.5527L12.8456 28.2596C13.1507 27.9546 13.1507 27.4599 12.8456 27.1548Z" fill="white"/>
<path d="M3.13053 36.8698C2.82537 36.5649 2.33084 36.5649 2.02568 36.8699L0.228809 38.6667C-0.0762695 38.9718 -0.0762695 39.4665 0.228809 39.7717C0.381387 39.9242 0.581309 40.0004 0.78123 40.0004C0.981152 40.0004 1.18107 39.9241 1.33365 39.7716L3.13053 37.9747C3.43561 37.6696 3.43561 37.1749 3.13053 36.8698Z" fill="white"/>
<path d="M11.1441 38.6207C10.9988 38.4754 10.7973 38.3918 10.5918 38.3918C10.3855 38.3918 10.1848 38.4754 10.0395 38.6207C9.89414 38.766 9.81055 38.9668 9.81055 39.173C9.81055 39.3785 9.89406 39.5801 10.0395 39.7254C10.1848 39.8707 10.3863 39.9543 10.5918 39.9543C10.7973 39.9543 10.9988 39.8707 11.1441 39.7254C11.2894 39.5801 11.373 39.3785 11.373 39.173C11.373 38.9668 11.2895 38.766 11.1441 38.6207Z" fill="white"/>
<path d="M16.9574 32.8078C16.6524 32.5028 16.1579 32.5028 15.8525 32.8078L11.9896 36.6707C11.6845 36.9758 11.6845 37.4705 11.9896 37.7756C12.1421 37.9282 12.3421 38.0044 12.542 38.0044C12.7419 38.0044 12.9418 37.9281 13.0944 37.7756L16.9574 33.9127C17.2624 33.6076 17.2624 33.1129 16.9574 32.8078Z" fill="white"/>
<path d="M30.2891 32.5114C29.984 32.2064 29.4894 32.2064 29.1843 32.5114L25.3108 36.3848C25.0058 36.6899 25.0058 37.1846 25.3108 37.4898C25.4634 37.6423 25.6633 37.7186 25.8633 37.7186C26.0632 37.7186 26.2631 37.6423 26.4157 37.4898L30.2891 33.6163C30.5942 33.3112 30.5942 32.8166 30.2891 32.5114Z" fill="white"/>
<path d="M22.148 10.6498C22.0027 10.5045 21.8012 10.4209 21.5957 10.4209C21.3902 10.4209 21.1887 10.5045 21.0434 10.6498C20.8981 10.7951 20.8145 10.9967 20.8145 11.2029C20.8145 11.4084 20.898 11.6092 21.0434 11.7545C21.1887 11.9006 21.3902 11.9834 21.5957 11.9834C21.8012 11.9834 22.0027 11.9006 22.148 11.7545C22.2933 11.6092 22.377 11.4084 22.377 11.2029C22.377 10.9967 22.2934 10.7951 22.148 10.6498Z" fill="white"/>
</g>
<defs>
<clipPath id="clip0">
<rect width="40" height="40" fill="white" transform="translate(0 0.000488281)"/>
</clipPath>
</defs>
</svg>
