<svg width="339" height="208" viewBox="0 0 339 208" fill="none" xmlns="http://www.w3.org/2000/svg">
<path d="M32.1729 28.4316L326.964 28.4317" stroke="#EEEEEE" stroke-linecap="square" stroke-dasharray="4 8"/>
<path d="M32.1729 53.8704L326.964 53.8704" stroke="#EEEEEE" stroke-linecap="square" stroke-dasharray="4 8"/>
<path d="M32.1729 79.3093L326.964 79.3094" stroke="#EEEEEE" stroke-linecap="square" stroke-dasharray="4 8"/>
<path d="M32.1729 104.748L326.964 104.748" stroke="#EEEEEE" stroke-linecap="square" stroke-dasharray="4 8"/>
<path d="M33.6694 129.439L328.461 129.439" stroke="#EEEEEE" stroke-linecap="square" stroke-dasharray="4 8"/>
<path d="M33.6694 154.878L328.461 154.878" stroke="#EEEEEE" stroke-linecap="square" stroke-dasharray="4 8"/>
<path d="M32.1729 181.065L326.964 181.065" stroke="#EEEEEE" stroke-linecap="square" stroke-dasharray="4 8"/>
<path d="M43.0215 179.568V49.0072" stroke="#6655E5" stroke-width="4" stroke-linecap="round" stroke-linejoin="round"/>
<path d="M53.1221 179.568L53.1221 139.914" stroke="#EEEEEE" stroke-width="4" stroke-linecap="round" stroke-linejoin="round"/>
<path d="M77.813 179.568L77.813 124.201" stroke="#6655E5" stroke-width="4" stroke-linecap="round" stroke-linejoin="round"/>
<path d="M88.2881 179.568L88.2881 146.647" stroke="#EEEEEE" stroke-width="4" stroke-linecap="round" stroke-linejoin="round"/>
<path d="M133.18 179.568L133.18 124.201" stroke="#6655E5" stroke-width="4" stroke-linecap="round" stroke-linejoin="round"/>
<path d="M122.705 179.568L122.705 146.647" stroke="#EEEEEE" stroke-width="4" stroke-linecap="round" stroke-linejoin="round"/>
<path d="M167.597 179.568L167.597 156.374" stroke="#6655E5" stroke-width="4" stroke-linecap="round" stroke-linejoin="round"/>
<path d="M178.072 179.568L178.072 96.5179" stroke="#EEEEEE" stroke-width="4" stroke-linecap="round" stroke-linejoin="round"/>
<path d="M212.489 179.568L212.489 174.331" stroke="#6655E5" stroke-width="4" stroke-linecap="round" stroke-linejoin="round"/>
<path d="M222.964 179.568L222.964 146.648" stroke="#EEEEEE" stroke-width="4" stroke-linecap="round" stroke-linejoin="round"/>
<path d="M254.389 179.568L254.389 176.576" stroke="#6655E5" stroke-width="4" stroke-linecap="round" stroke-linejoin="round"/>
<path d="M264.863 179.568L264.863 169.842" stroke="#EEEEEE" stroke-width="4" stroke-linecap="round" stroke-linejoin="round"/>
<path d="M299.281 179.568L299.281 171.338" stroke="#6655E5" stroke-width="4" stroke-linecap="round" stroke-linejoin="round"/>
<path d="M309.755 179.568L309.755 176.576" stroke="#EEEEEE" stroke-width="4" stroke-linecap="round" stroke-linejoin="round"/>
<path d="M43.1155 204.837V203.853L48.8875 201.285V202.617L44.7235 204.333V204.357L48.8875 206.073V207.405L43.1155 204.837ZM50.3507 207.777V206.445H52.2107V201.717L52.2227 201.141H52.1987C52.1267 201.277 51.9987 201.437 51.8147 201.621L51.1307 202.269L50.2187 201.309L52.3547 199.257H53.7107V206.445H55.5587V207.777H50.3507ZM56.4779 205.317C56.4779 205.037 56.5259 204.769 56.6219 204.513C56.7179 204.257 56.8459 204.037 57.0059 203.853C57.1659 203.661 57.3019 203.513 57.4139 203.409C57.5339 203.297 57.6539 203.197 57.7739 203.109C57.1819 202.653 56.8859 202.101 56.8859 201.453C56.8859 200.805 57.1219 200.253 57.5939 199.797C58.0659 199.341 58.7419 199.113 59.6219 199.113C60.4299 199.113 61.0899 199.325 61.6019 199.749C62.1219 200.173 62.3819 200.745 62.3819 201.465C62.3819 202.185 62.0659 202.893 61.4339 203.589C62.1619 204.053 62.5259 204.653 62.5259 205.389C62.5259 206.077 62.2499 206.673 61.6979 207.177C61.1539 207.673 60.4259 207.921 59.5139 207.921C58.6179 207.921 57.8859 207.673 57.3179 207.177C56.7579 206.673 56.4779 206.053 56.4779 205.317ZM60.2819 203.013C60.6739 202.533 60.8699 202.057 60.8699 201.585C60.8699 201.249 60.7499 200.985 60.5099 200.793C60.2779 200.593 59.9699 200.493 59.5859 200.493C59.2179 200.493 58.9299 200.585 58.7219 200.769C58.5139 200.953 58.4099 201.189 58.4099 201.477C58.4099 201.565 58.4179 201.649 58.4339 201.729C58.4579 201.801 58.4939 201.877 58.5419 201.957C58.5979 202.029 58.6419 202.093 58.6739 202.149C58.7139 202.197 58.7819 202.253 58.8779 202.317C58.9819 202.381 59.0579 202.433 59.1059 202.473C59.1619 202.505 59.2539 202.553 59.3819 202.617C59.5179 202.681 59.6099 202.725 59.6579 202.749C59.7139 202.765 59.8219 202.809 59.9819 202.881C60.1419 202.953 60.2419 202.997 60.2819 203.013ZM58.0619 205.197C58.0619 205.581 58.2059 205.905 58.4939 206.169C58.7819 206.425 59.1219 206.553 59.5139 206.553C59.9219 206.553 60.2619 206.441 60.5339 206.217C60.8139 205.985 60.9539 205.689 60.9539 205.329C60.9539 205.177 60.9179 205.041 60.8459 204.921C60.7819 204.801 60.6619 204.685 60.4859 204.573C60.3179 204.453 60.1739 204.361 60.0539 204.297C59.9339 204.233 59.7339 204.141 59.4539 204.021C59.1739 203.901 58.9779 203.813 58.8659 203.757C58.3299 204.213 58.0619 204.693 58.0619 205.197Z" fill="#151515"/>
<path d="M78.485 207.777V206.445H80.345V201.717L80.357 201.141H80.333C80.261 201.277 80.133 201.437 79.949 201.621L79.265 202.269L78.353 201.309L80.489 199.257H81.845V206.445H83.693V207.777H78.485ZM84.6122 205.317C84.6122 205.037 84.6602 204.769 84.7562 204.513C84.8522 204.257 84.9802 204.037 85.1402 203.853C85.3002 203.661 85.4362 203.513 85.5482 203.409C85.6682 203.297 85.7882 203.197 85.9082 203.109C85.3162 202.653 85.0202 202.101 85.0202 201.453C85.0202 200.805 85.2562 200.253 85.7282 199.797C86.2002 199.341 86.8762 199.113 87.7562 199.113C88.5642 199.113 89.2242 199.325 89.7362 199.749C90.2562 200.173 90.5162 200.745 90.5162 201.465C90.5162 202.185 90.2002 202.893 89.5682 203.589C90.2962 204.053 90.6602 204.653 90.6602 205.389C90.6602 206.077 90.3842 206.673 89.8322 207.177C89.2882 207.673 88.5602 207.921 87.6482 207.921C86.7522 207.921 86.0202 207.673 85.4522 207.177C84.8922 206.673 84.6122 206.053 84.6122 205.317ZM88.4162 203.013C88.8082 202.533 89.0042 202.057 89.0042 201.585C89.0042 201.249 88.8842 200.985 88.6442 200.793C88.4122 200.593 88.1042 200.493 87.7202 200.493C87.3522 200.493 87.0642 200.585 86.8562 200.769C86.6482 200.953 86.5442 201.189 86.5442 201.477C86.5442 201.565 86.5522 201.649 86.5682 201.729C86.5922 201.801 86.6282 201.877 86.6762 201.957C86.7322 202.029 86.7762 202.093 86.8082 202.149C86.8482 202.197 86.9162 202.253 87.0122 202.317C87.1162 202.381 87.1922 202.433 87.2402 202.473C87.2962 202.505 87.3882 202.553 87.5162 202.617C87.6522 202.681 87.7442 202.725 87.7922 202.749C87.8482 202.765 87.9562 202.809 88.1162 202.881C88.2762 202.953 88.3762 202.997 88.4162 203.013ZM86.1962 205.197C86.1962 205.581 86.3402 205.905 86.6282 206.169C86.9162 206.425 87.2562 206.553 87.6482 206.553C88.0562 206.553 88.3962 206.441 88.6682 206.217C88.9482 205.985 89.0882 205.689 89.0882 205.329C89.0882 205.177 89.0522 205.041 88.9802 204.921C88.9162 204.801 88.7962 204.685 88.6202 204.573C88.4522 204.453 88.3082 204.361 88.1882 204.297C88.0682 204.233 87.8682 204.141 87.5882 204.021C87.3082 203.901 87.1122 203.813 87.0002 203.757C86.4642 204.213 86.1962 204.693 86.1962 205.197ZM92.1284 205.017V203.685H95.7284V205.017H92.1284ZM97.0832 207.777C97.0352 207.505 97.0112 207.253 97.0112 207.021C97.0112 206.605 97.0832 206.217 97.2272 205.857C97.3792 205.497 97.5712 205.189 97.8032 204.933C98.0352 204.669 98.2912 204.425 98.5712 204.201C98.8592 203.977 99.1432 203.769 99.4232 203.577C99.7112 203.385 99.9712 203.197 100.203 203.013C100.435 202.829 100.623 202.633 100.767 202.425C100.919 202.209 100.995 201.989 100.995 201.765C100.995 201.405 100.871 201.117 100.623 200.901C100.375 200.685 100.067 200.577 99.6992 200.577C99.3872 200.577 99.0952 200.673 98.8232 200.865C98.5512 201.057 98.3312 201.297 98.1632 201.585L97.0112 200.817C97.2832 200.321 97.6592 199.913 98.1392 199.593C98.6192 199.273 99.1832 199.113 99.8312 199.113C100.607 199.113 101.263 199.341 101.799 199.797C102.335 200.245 102.603 200.857 102.603 201.633C102.603 202.001 102.531 202.349 102.387 202.677C102.251 202.997 102.071 203.273 101.847 203.505C101.623 203.737 101.371 203.957 101.091 204.165C100.819 204.373 100.547 204.565 100.275 204.741C100.003 204.917 99.7512 205.093 99.5192 205.269C99.2872 205.437 99.0952 205.621 98.9432 205.821C98.7992 206.021 98.7232 206.229 98.7152 206.445H102.735V207.777H97.0832ZM108.603 207.585C108.195 207.809 107.711 207.921 107.151 207.921C106.591 207.921 106.103 207.809 105.687 207.585C105.279 207.361 104.959 207.041 104.727 206.625C104.495 206.209 104.323 205.745 104.211 205.233C104.107 204.721 104.055 204.145 104.055 203.505C104.055 202.865 104.107 202.289 104.211 201.777C104.323 201.265 104.495 200.805 104.727 200.397C104.959 199.989 105.279 199.673 105.687 199.449C106.095 199.225 106.583 199.113 107.151 199.113C109.207 199.113 110.235 200.577 110.235 203.505C110.235 204.145 110.179 204.721 110.067 205.233C109.963 205.745 109.795 206.209 109.563 206.625C109.339 207.041 109.019 207.361 108.603 207.585ZM105.651 203.505C105.651 205.505 106.151 206.505 107.151 206.505C108.151 206.505 108.651 205.505 108.651 203.505C108.651 201.529 108.151 200.541 107.151 200.541C106.151 200.541 105.651 201.529 105.651 203.505Z" fill="#151515"/>
<path d="M122.653 207.777C122.605 207.505 122.581 207.253 122.581 207.021C122.581 206.605 122.653 206.217 122.797 205.857C122.949 205.497 123.141 205.189 123.373 204.933C123.605 204.669 123.861 204.425 124.141 204.201C124.429 203.977 124.713 203.769 124.993 203.577C125.281 203.385 125.541 203.197 125.773 203.013C126.005 202.829 126.193 202.633 126.337 202.425C126.489 202.209 126.565 201.989 126.565 201.765C126.565 201.405 126.441 201.117 126.193 200.901C125.945 200.685 125.637 200.577 125.269 200.577C124.957 200.577 124.665 200.673 124.393 200.865C124.121 201.057 123.901 201.297 123.733 201.585L122.581 200.817C122.853 200.321 123.229 199.913 123.709 199.593C124.189 199.273 124.753 199.113 125.401 199.113C126.177 199.113 126.833 199.341 127.369 199.797C127.905 200.245 128.173 200.857 128.173 201.633C128.173 202.001 128.101 202.349 127.957 202.677C127.821 202.997 127.641 203.273 127.417 203.505C127.193 203.737 126.941 203.957 126.661 204.165C126.389 204.373 126.117 204.565 125.845 204.741C125.573 204.917 125.321 205.093 125.089 205.269C124.857 205.437 124.665 205.621 124.513 205.821C124.369 206.021 124.293 206.229 124.285 206.445H128.305V207.777H122.653ZM134.173 207.585C133.765 207.809 133.281 207.921 132.721 207.921C132.161 207.921 131.673 207.809 131.257 207.585C130.849 207.361 130.529 207.041 130.297 206.625C130.065 206.209 129.893 205.745 129.781 205.233C129.677 204.721 129.625 204.145 129.625 203.505C129.625 202.865 129.677 202.289 129.781 201.777C129.893 201.265 130.065 200.805 130.297 200.397C130.529 199.989 130.849 199.673 131.257 199.449C131.665 199.225 132.153 199.113 132.721 199.113C134.777 199.113 135.805 200.577 135.805 203.505C135.805 204.145 135.749 204.721 135.637 205.233C135.533 205.745 135.365 206.209 135.133 206.625C134.909 207.041 134.589 207.361 134.173 207.585ZM131.221 203.505C131.221 205.505 131.721 206.505 132.721 206.505C133.721 206.505 134.221 205.505 134.221 203.505C134.221 201.529 133.721 200.541 132.721 200.541C131.721 200.541 131.221 201.529 131.221 203.505ZM137.28 205.017V203.685H140.88V205.017H137.28ZM142.235 207.777C142.187 207.505 142.163 207.253 142.163 207.021C142.163 206.605 142.235 206.217 142.379 205.857C142.531 205.497 142.723 205.189 142.955 204.933C143.187 204.669 143.443 204.425 143.723 204.201C144.011 203.977 144.295 203.769 144.575 203.577C144.863 203.385 145.123 203.197 145.355 203.013C145.587 202.829 145.775 202.633 145.919 202.425C146.071 202.209 146.147 201.989 146.147 201.765C146.147 201.405 146.023 201.117 145.775 200.901C145.527 200.685 145.219 200.577 144.851 200.577C144.539 200.577 144.247 200.673 143.975 200.865C143.703 201.057 143.483 201.297 143.315 201.585L142.163 200.817C142.435 200.321 142.811 199.913 143.291 199.593C143.771 199.273 144.335 199.113 144.983 199.113C145.759 199.113 146.415 199.341 146.951 199.797C147.487 200.245 147.755 200.857 147.755 201.633C147.755 202.001 147.683 202.349 147.539 202.677C147.403 202.997 147.223 203.273 146.999 203.505C146.775 203.737 146.523 203.957 146.243 204.165C145.971 204.373 145.699 204.565 145.427 204.741C145.155 204.917 144.903 205.093 144.671 205.269C144.439 205.437 144.247 205.621 144.095 205.821C143.951 206.021 143.875 206.229 143.867 206.445H147.887V207.777H142.235ZM149.063 206.769L149.867 205.605C150.387 206.173 150.991 206.457 151.679 206.457C152.111 206.457 152.483 206.325 152.795 206.061C153.115 205.789 153.275 205.437 153.275 205.005C153.275 204.565 153.115 204.209 152.795 203.937C152.475 203.665 152.067 203.529 151.571 203.529C151.099 203.529 150.659 203.649 150.251 203.889L149.387 203.577L149.783 199.257H154.271V200.589H151.127L150.995 201.993L150.935 202.389H150.959C151.199 202.261 151.503 202.197 151.871 202.197C152.783 202.197 153.511 202.465 154.055 203.001C154.599 203.537 154.871 204.201 154.871 204.993C154.871 205.833 154.579 206.533 153.995 207.093C153.411 207.645 152.679 207.921 151.799 207.921C151.279 207.921 150.779 207.821 150.299 207.621C149.819 207.421 149.407 207.137 149.063 206.769Z" fill="#151515"/>
<path d="M166.797 207.777C166.749 207.505 166.725 207.253 166.725 207.021C166.725 206.605 166.797 206.217 166.941 205.857C167.093 205.497 167.285 205.189 167.517 204.933C167.749 204.669 168.005 204.425 168.285 204.201C168.573 203.977 168.857 203.769 169.137 203.577C169.425 203.385 169.685 203.197 169.917 203.013C170.149 202.829 170.337 202.633 170.481 202.425C170.633 202.209 170.709 201.989 170.709 201.765C170.709 201.405 170.585 201.117 170.337 200.901C170.089 200.685 169.781 200.577 169.413 200.577C169.101 200.577 168.809 200.673 168.537 200.865C168.265 201.057 168.045 201.297 167.877 201.585L166.725 200.817C166.997 200.321 167.373 199.913 167.853 199.593C168.333 199.273 168.897 199.113 169.545 199.113C170.321 199.113 170.977 199.341 171.513 199.797C172.049 200.245 172.317 200.857 172.317 201.633C172.317 202.001 172.245 202.349 172.101 202.677C171.965 202.997 171.785 203.273 171.561 203.505C171.337 203.737 171.085 203.957 170.805 204.165C170.533 204.373 170.261 204.565 169.989 204.741C169.717 204.917 169.465 205.093 169.233 205.269C169.001 205.437 168.809 205.621 168.657 205.821C168.513 206.021 168.437 206.229 168.429 206.445H172.449V207.777H166.797ZM173.625 206.769L174.429 205.605C174.949 206.173 175.553 206.457 176.241 206.457C176.673 206.457 177.045 206.325 177.357 206.061C177.677 205.789 177.837 205.437 177.837 205.005C177.837 204.565 177.677 204.209 177.357 203.937C177.037 203.665 176.629 203.529 176.133 203.529C175.661 203.529 175.221 203.649 174.813 203.889L173.949 203.577L174.345 199.257H178.833V200.589H175.689L175.557 201.993L175.497 202.389H175.521C175.761 202.261 176.065 202.197 176.433 202.197C177.345 202.197 178.073 202.465 178.617 203.001C179.161 203.537 179.433 204.201 179.433 204.993C179.433 205.833 179.141 206.533 178.557 207.093C177.973 207.645 177.241 207.921 176.361 207.921C175.841 207.921 175.341 207.821 174.861 207.621C174.381 207.421 173.969 207.137 173.625 206.769ZM180.732 205.017V203.685H184.332V205.017H180.732ZM185.412 206.781L186.204 205.593C186.444 205.841 186.736 206.049 187.08 206.217C187.432 206.377 187.788 206.457 188.148 206.457C188.588 206.457 188.952 206.337 189.24 206.097C189.528 205.857 189.672 205.553 189.672 205.185C189.672 204.753 189.5 204.425 189.156 204.201C188.82 203.977 188.384 203.865 187.848 203.865H187.26L186.924 203.073L188.484 201.225C188.58 201.105 188.676 200.993 188.772 200.889C188.876 200.777 188.956 200.697 189.012 200.649L189.096 200.577V200.553C188.92 200.577 188.668 200.589 188.34 200.589H185.796V199.257H190.992V200.229L188.916 202.641C189.556 202.729 190.1 202.993 190.548 203.433C191.004 203.865 191.232 204.429 191.232 205.125C191.232 205.893 190.96 206.553 190.416 207.105C189.872 207.649 189.144 207.921 188.232 207.921C187.712 207.921 187.2 207.825 186.696 207.633C186.2 207.433 185.772 207.149 185.412 206.781ZM192.363 206.769L193.167 205.605C193.687 206.173 194.291 206.457 194.979 206.457C195.411 206.457 195.783 206.325 196.095 206.061C196.415 205.789 196.575 205.437 196.575 205.005C196.575 204.565 196.415 204.209 196.095 203.937C195.775 203.665 195.367 203.529 194.871 203.529C194.399 203.529 193.959 203.649 193.551 203.889L192.687 203.577L193.083 199.257H197.571V200.589H194.427L194.295 201.993L194.235 202.389H194.259C194.499 202.261 194.803 202.197 195.171 202.197C196.083 202.197 196.811 202.465 197.355 203.001C197.899 203.537 198.171 204.201 198.171 204.993C198.171 205.833 197.879 206.533 197.295 207.093C196.711 207.645 195.979 207.921 195.099 207.921C194.579 207.921 194.079 207.821 193.599 207.621C193.119 207.421 192.707 207.137 192.363 206.769Z" fill="#151515"/>
<path d="M210.701 206.781L211.493 205.593C211.733 205.841 212.025 206.049 212.369 206.217C212.721 206.377 213.077 206.457 213.437 206.457C213.877 206.457 214.241 206.337 214.529 206.097C214.817 205.857 214.961 205.553 214.961 205.185C214.961 204.753 214.789 204.425 214.445 204.201C214.109 203.977 213.673 203.865 213.137 203.865H212.549L212.213 203.073L213.773 201.225C213.869 201.105 213.965 200.993 214.061 200.889C214.165 200.777 214.245 200.697 214.301 200.649L214.385 200.577V200.553C214.209 200.577 213.957 200.589 213.629 200.589H211.085V199.257H216.281V200.229L214.205 202.641C214.845 202.729 215.389 202.993 215.837 203.433C216.293 203.865 216.521 204.429 216.521 205.125C216.521 205.893 216.249 206.553 215.705 207.105C215.161 207.649 214.433 207.921 213.521 207.921C213.001 207.921 212.489 207.825 211.985 207.633C211.489 207.433 211.061 207.149 210.701 206.781ZM217.652 206.769L218.456 205.605C218.976 206.173 219.58 206.457 220.268 206.457C220.7 206.457 221.072 206.325 221.384 206.061C221.704 205.789 221.864 205.437 221.864 205.005C221.864 204.565 221.704 204.209 221.384 203.937C221.064 203.665 220.656 203.529 220.16 203.529C219.688 203.529 219.248 203.649 218.84 203.889L217.976 203.577L218.372 199.257H222.86V200.589H219.716L219.584 201.993L219.524 202.389H219.548C219.788 202.261 220.092 202.197 220.46 202.197C221.372 202.197 222.1 202.465 222.644 203.001C223.188 203.537 223.46 204.201 223.46 204.993C223.46 205.833 223.168 206.533 222.584 207.093C222 207.645 221.268 207.921 220.388 207.921C219.868 207.921 219.368 207.821 218.888 207.621C218.408 207.421 217.996 207.137 217.652 206.769ZM224.759 205.017V203.685H228.359V205.017H224.759ZM229.507 205.581V204.633L233.191 199.257H235.015V204.297H236.119V205.581H235.015V207.777H233.491V205.581H229.507ZM231.139 204.297H233.491V201.657L233.551 200.769H233.527C233.399 201.073 233.259 201.333 233.107 201.549L231.139 204.273V204.297ZM237.105 206.769L237.909 205.605C238.429 206.173 239.033 206.457 239.721 206.457C240.153 206.457 240.525 206.325 240.837 206.061C241.157 205.789 241.317 205.437 241.317 205.005C241.317 204.565 241.157 204.209 240.837 203.937C240.517 203.665 240.109 203.529 239.613 203.529C239.141 203.529 238.701 203.649 238.293 203.889L237.429 203.577L237.825 199.257H242.313V200.589H239.169L239.037 201.993L238.977 202.389H239.001C239.241 202.261 239.545 202.197 239.913 202.197C240.825 202.197 241.553 202.465 242.097 203.001C242.641 203.537 242.913 204.201 242.913 204.993C242.913 205.833 242.621 206.533 242.037 207.093C241.453 207.645 240.721 207.921 239.841 207.921C239.321 207.921 238.821 207.821 238.341 207.621C237.861 207.421 237.449 207.137 237.105 206.769Z" fill="#151515"/>
<path d="M254.749 205.581V204.633L258.433 199.257H260.257V204.297H261.361V205.581H260.257V207.777H258.733V205.581H254.749ZM256.381 204.297H258.733V201.657L258.793 200.769H258.769C258.641 201.073 258.501 201.333 258.349 201.549L256.381 204.273V204.297ZM262.346 206.769L263.15 205.605C263.67 206.173 264.274 206.457 264.962 206.457C265.394 206.457 265.766 206.325 266.078 206.061C266.398 205.789 266.558 205.437 266.558 205.005C266.558 204.565 266.398 204.209 266.078 203.937C265.758 203.665 265.35 203.529 264.854 203.529C264.382 203.529 263.942 203.649 263.534 203.889L262.67 203.577L263.066 199.257H267.554V200.589H264.41L264.278 201.993L264.218 202.389H264.242C264.482 202.261 264.786 202.197 265.154 202.197C266.066 202.197 266.794 202.465 267.338 203.001C267.882 203.537 268.154 204.201 268.154 204.993C268.154 205.833 267.862 206.533 267.278 207.093C266.694 207.645 265.962 207.921 265.082 207.921C264.562 207.921 264.062 207.821 263.582 207.621C263.102 207.421 262.69 207.137 262.346 206.769ZM269.454 205.017V203.685H273.054V205.017H269.454ZM274.466 203.889C274.466 203.433 274.514 202.981 274.61 202.533C274.714 202.085 274.874 201.657 275.09 201.249C275.306 200.833 275.562 200.469 275.858 200.157C276.162 199.837 276.53 199.585 276.962 199.401C277.402 199.209 277.878 199.113 278.39 199.113C279.054 199.113 279.638 199.233 280.142 199.473L279.686 200.805C279.366 200.629 278.962 200.541 278.474 200.541C277.85 200.541 277.346 200.761 276.962 201.201C276.578 201.641 276.33 202.181 276.218 202.821H276.242C276.386 202.645 276.61 202.501 276.914 202.389C277.218 202.277 277.526 202.221 277.838 202.221C278.654 202.221 279.31 202.497 279.806 203.049C280.31 203.601 280.562 204.277 280.562 205.077C280.562 205.877 280.302 206.553 279.782 207.105C279.262 207.649 278.59 207.921 277.766 207.921C276.838 207.921 276.054 207.557 275.414 206.829C274.782 206.101 274.466 205.121 274.466 203.889ZM277.778 206.505C278.154 206.505 278.458 206.369 278.69 206.097C278.922 205.825 279.038 205.485 279.038 205.077C279.038 204.621 278.898 204.245 278.618 203.949C278.346 203.645 277.966 203.493 277.478 203.493C277.086 203.493 276.754 203.581 276.482 203.757C276.21 203.925 276.074 204.157 276.074 204.453C276.074 204.949 276.242 205.417 276.578 205.857C276.914 206.289 277.314 206.505 277.778 206.505ZM286.304 207.585C285.896 207.809 285.412 207.921 284.852 207.921C284.292 207.921 283.804 207.809 283.388 207.585C282.98 207.361 282.66 207.041 282.428 206.625C282.196 206.209 282.024 205.745 281.912 205.233C281.808 204.721 281.756 204.145 281.756 203.505C281.756 202.865 281.808 202.289 281.912 201.777C282.024 201.265 282.196 200.805 282.428 200.397C282.66 199.989 282.98 199.673 283.388 199.449C283.796 199.225 284.284 199.113 284.852 199.113C286.908 199.113 287.936 200.577 287.936 203.505C287.936 204.145 287.88 204.721 287.768 205.233C287.664 205.745 287.496 206.209 287.264 206.625C287.04 207.041 286.72 207.361 286.304 207.585ZM283.352 203.505C283.352 205.505 283.852 206.505 284.852 206.505C285.852 206.505 286.352 205.505 286.352 203.505C286.352 201.529 285.852 200.541 284.852 200.541C283.852 200.541 283.352 201.529 283.352 203.505Z" fill="#151515"/>
<path d="M299.156 203.889C299.156 203.433 299.204 202.981 299.3 202.533C299.404 202.085 299.564 201.657 299.78 201.249C299.996 200.833 300.252 200.469 300.548 200.157C300.852 199.837 301.22 199.585 301.652 199.401C302.092 199.209 302.568 199.113 303.08 199.113C303.744 199.113 304.328 199.233 304.832 199.473L304.376 200.805C304.056 200.629 303.652 200.541 303.164 200.541C302.54 200.541 302.036 200.761 301.652 201.201C301.268 201.641 301.02 202.181 300.908 202.821H300.932C301.076 202.645 301.3 202.501 301.604 202.389C301.908 202.277 302.216 202.221 302.528 202.221C303.344 202.221 304 202.497 304.496 203.049C305 203.601 305.252 204.277 305.252 205.077C305.252 205.877 304.992 206.553 304.472 207.105C303.952 207.649 303.28 207.921 302.456 207.921C301.528 207.921 300.744 207.557 300.104 206.829C299.472 206.101 299.156 205.121 299.156 203.889ZM302.468 206.505C302.844 206.505 303.148 206.369 303.38 206.097C303.612 205.825 303.728 205.485 303.728 205.077C303.728 204.621 303.588 204.245 303.308 203.949C303.036 203.645 302.656 203.493 302.168 203.493C301.776 203.493 301.444 203.581 301.172 203.757C300.9 203.925 300.764 204.157 300.764 204.453C300.764 204.949 300.932 205.417 301.268 205.857C301.604 206.289 302.004 206.505 302.468 206.505ZM310.994 207.585C310.586 207.809 310.102 207.921 309.542 207.921C308.982 207.921 308.494 207.809 308.078 207.585C307.67 207.361 307.35 207.041 307.118 206.625C306.886 206.209 306.714 205.745 306.602 205.233C306.498 204.721 306.446 204.145 306.446 203.505C306.446 202.865 306.498 202.289 306.602 201.777C306.714 201.265 306.886 200.805 307.118 200.397C307.35 199.989 307.67 199.673 308.078 199.449C308.486 199.225 308.974 199.113 309.542 199.113C311.598 199.113 312.626 200.577 312.626 203.505C312.626 204.145 312.57 204.721 312.458 205.233C312.354 205.745 312.186 206.209 311.954 206.625C311.73 207.041 311.41 207.361 310.994 207.585ZM308.042 203.505C308.042 205.505 308.542 206.505 309.542 206.505C310.542 206.505 311.042 205.505 311.042 203.505C311.042 201.529 310.542 200.541 309.542 200.541C308.542 200.541 308.042 201.529 308.042 203.505ZM314.102 205.017V203.685H317.702V205.017H314.102ZM318.985 207.777V206.445H320.845V201.717L320.857 201.141H320.833C320.761 201.277 320.633 201.437 320.449 201.621L319.765 202.269L318.853 201.309L320.989 199.257H322.345V206.445H324.193V207.777H318.985ZM329.733 207.585C329.325 207.809 328.841 207.921 328.281 207.921C327.721 207.921 327.233 207.809 326.817 207.585C326.409 207.361 326.089 207.041 325.857 206.625C325.625 206.209 325.453 205.745 325.341 205.233C325.237 204.721 325.185 204.145 325.185 203.505C325.185 202.865 325.237 202.289 325.341 201.777C325.453 201.265 325.625 200.805 325.857 200.397C326.089 199.989 326.409 199.673 326.817 199.449C327.225 199.225 327.713 199.113 328.281 199.113C330.337 199.113 331.365 200.577 331.365 203.505C331.365 204.145 331.309 204.721 331.197 205.233C331.093 205.745 330.925 206.209 330.693 206.625C330.469 207.041 330.149 207.361 329.733 207.585ZM326.781 203.505C326.781 205.505 327.281 206.505 328.281 206.505C329.281 206.505 329.781 205.505 329.781 203.505C329.781 201.529 329.281 200.541 328.281 200.541C327.281 200.541 326.781 201.529 326.781 203.505ZM337.268 207.585C336.86 207.809 336.376 207.921 335.816 207.921C335.256 207.921 334.768 207.809 334.352 207.585C333.944 207.361 333.624 207.041 333.392 206.625C333.16 206.209 332.988 205.745 332.876 205.233C332.772 204.721 332.72 204.145 332.72 203.505C332.72 202.865 332.772 202.289 332.876 201.777C332.988 201.265 333.16 200.805 333.392 200.397C333.624 199.989 333.944 199.673 334.352 199.449C334.76 199.225 335.248 199.113 335.816 199.113C337.872 199.113 338.9 200.577 338.9 203.505C338.9 204.145 338.844 204.721 338.732 205.233C338.628 205.745 338.46 206.209 338.228 206.625C338.004 207.041 337.684 207.361 337.268 207.585ZM334.316 203.505C334.316 205.505 334.816 206.505 335.816 206.505C336.816 206.505 337.316 205.505 337.316 203.505C337.316 201.529 336.816 200.541 335.816 200.541C334.816 200.541 334.316 201.529 334.316 203.505Z" fill="#151515"/>
<path d="M5.22 185.139C4.812 185.363 4.328 185.475 3.768 185.475C3.208 185.475 2.72 185.363 2.304 185.139C1.896 184.915 1.576 184.595 1.344 184.179C1.112 183.763 0.94 183.299 0.828 182.787C0.724 182.275 0.672 181.699 0.672 181.059C0.672 180.419 0.724 179.843 0.828 179.331C0.94 178.819 1.112 178.359 1.344 177.951C1.576 177.543 1.896 177.227 2.304 177.003C2.712 176.779 3.2 176.667 3.768 176.667C5.824 176.667 6.852 178.131 6.852 181.059C6.852 181.699 6.796 182.275 6.684 182.787C6.58 183.299 6.412 183.763 6.18 184.179C5.956 184.595 5.636 184.915 5.22 185.139ZM2.268 181.059C2.268 183.059 2.768 184.059 3.768 184.059C4.768 184.059 5.268 183.059 5.268 181.059C5.268 179.083 4.768 178.095 3.768 178.095C2.768 178.095 2.268 179.083 2.268 181.059ZM11.3992 179.907C11.0152 180.275 10.5512 180.459 10.0072 180.459C9.46316 180.459 8.99916 180.275 8.61516 179.907C8.23916 179.539 8.05116 179.091 8.05116 178.563C8.05116 178.043 8.23916 177.599 8.61516 177.231C8.99916 176.855 9.46316 176.667 10.0072 176.667C10.5432 176.667 11.0032 176.855 11.3872 177.231C11.7792 177.599 11.9752 178.043 11.9752 178.563C11.9752 179.091 11.7832 179.539 11.3992 179.907ZM8.35116 185.331L14.8912 176.811H16.2952L9.75516 185.331H8.35116ZM9.44316 179.127C9.59516 179.279 9.78316 179.355 10.0072 179.355C10.2312 179.355 10.4192 179.279 10.5712 179.127C10.7312 178.975 10.8112 178.787 10.8112 178.563C10.8112 178.347 10.7312 178.163 10.5712 178.011C10.4192 177.851 10.2312 177.771 10.0072 177.771C9.78316 177.771 9.59516 177.851 9.44316 178.011C9.29116 178.163 9.21516 178.347 9.21516 178.563C9.21516 178.787 9.29116 178.975 9.44316 179.127ZM13.2712 184.923C12.8952 184.555 12.7072 184.111 12.7072 183.591C12.7072 183.071 12.8952 182.627 13.2712 182.259C13.6552 181.883 14.1192 181.695 14.6632 181.695C15.1992 181.695 15.6592 181.883 16.0432 182.259C16.4272 182.627 16.6192 183.071 16.6192 183.591C16.6192 184.111 16.4272 184.555 16.0432 184.923C15.6672 185.291 15.2072 185.475 14.6632 185.475C14.1192 185.475 13.6552 185.291 13.2712 184.923ZM13.8712 183.579C13.8712 183.803 13.9472 183.991 14.0992 184.143C14.2512 184.295 14.4392 184.371 14.6632 184.371C14.8872 184.371 15.0752 184.295 15.2272 184.143C15.3872 183.991 15.4672 183.803 15.4672 183.579C15.4672 183.363 15.3872 183.179 15.2272 183.027C15.0752 182.867 14.8872 182.787 14.6632 182.787C14.4392 182.787 14.2512 182.867 14.0992 183.027C13.9472 183.179 13.8712 183.363 13.8712 183.579Z" fill="#151515"/>
<path d="M0.672 160.64V159.308H2.532V154.58L2.544 154.004H2.52C2.448 154.14 2.32 154.3 2.136 154.484L1.452 155.132L0.54 154.172L2.676 152.12H4.032V159.308H5.88V160.64H0.672ZM11.4192 160.448C11.0112 160.672 10.5272 160.784 9.96722 160.784C9.40722 160.784 8.91922 160.672 8.50322 160.448C8.09522 160.224 7.77522 159.904 7.54322 159.488C7.31122 159.072 7.13922 158.608 7.02722 158.096C6.92322 157.584 6.87122 157.008 6.87122 156.368C6.87122 155.728 6.92322 155.152 7.02722 154.64C7.13922 154.128 7.31122 153.668 7.54322 153.26C7.77522 152.852 8.09522 152.536 8.50322 152.312C8.91122 152.088 9.39922 151.976 9.96722 151.976C12.0232 151.976 13.0512 153.44 13.0512 156.368C13.0512 157.008 12.9952 157.584 12.8832 158.096C12.7792 158.608 12.6112 159.072 12.3792 159.488C12.1552 159.904 11.8352 160.224 11.4192 160.448ZM8.46722 156.368C8.46722 158.368 8.96722 159.368 9.96722 159.368C10.9672 159.368 11.4672 158.368 11.4672 156.368C11.4672 154.392 10.9672 153.404 9.96722 153.404C8.96722 153.404 8.46722 154.392 8.46722 156.368ZM17.5984 155.216C17.2144 155.584 16.7504 155.768 16.2064 155.768C15.6624 155.768 15.1984 155.584 14.8144 155.216C14.4384 154.848 14.2504 154.4 14.2504 153.872C14.2504 153.352 14.4384 152.908 14.8144 152.54C15.1984 152.164 15.6624 151.976 16.2064 151.976C16.7424 151.976 17.2024 152.164 17.5864 152.54C17.9784 152.908 18.1744 153.352 18.1744 153.872C18.1744 154.4 17.9824 154.848 17.5984 155.216ZM14.5504 160.64L21.0904 152.12H22.4944L15.9544 160.64H14.5504ZM15.6424 154.436C15.7944 154.588 15.9824 154.664 16.2064 154.664C16.4304 154.664 16.6184 154.588 16.7704 154.436C16.9304 154.284 17.0104 154.096 17.0104 153.872C17.0104 153.656 16.9304 153.472 16.7704 153.32C16.6184 153.16 16.4304 153.08 16.2064 153.08C15.9824 153.08 15.7944 153.16 15.6424 153.32C15.4904 153.472 15.4144 153.656 15.4144 153.872C15.4144 154.096 15.4904 154.284 15.6424 154.436ZM19.4704 160.232C19.0944 159.864 18.9064 159.42 18.9064 158.9C18.9064 158.38 19.0944 157.936 19.4704 157.568C19.8544 157.192 20.3184 157.004 20.8624 157.004C21.3984 157.004 21.8584 157.192 22.2424 157.568C22.6264 157.936 22.8184 158.38 22.8184 158.9C22.8184 159.42 22.6264 159.864 22.2424 160.232C21.8664 160.6 21.4064 160.784 20.8624 160.784C20.3184 160.784 19.8544 160.6 19.4704 160.232ZM20.0704 158.888C20.0704 159.112 20.1464 159.3 20.2984 159.452C20.4504 159.604 20.6384 159.68 20.8624 159.68C21.0864 159.68 21.2744 159.604 21.4264 159.452C21.5864 159.3 21.6664 159.112 21.6664 158.888C21.6664 158.672 21.5864 158.488 21.4264 158.336C21.2744 158.176 21.0864 158.096 20.8624 158.096C20.6384 158.096 20.4504 158.176 20.2984 158.336C20.1464 158.488 20.0704 158.672 20.0704 158.888Z" fill="#151515"/>
<path d="M0.696 135.202C0.648 134.93 0.624 134.678 0.624 134.446C0.624 134.03 0.696 133.642 0.84 133.282C0.992 132.922 1.184 132.614 1.416 132.358C1.648 132.094 1.904 131.85 2.184 131.626C2.472 131.402 2.756 131.194 3.036 131.002C3.324 130.81 3.584 130.622 3.816 130.438C4.048 130.254 4.236 130.058 4.38 129.85C4.532 129.634 4.608 129.414 4.608 129.19C4.608 128.83 4.484 128.542 4.236 128.326C3.988 128.11 3.68 128.002 3.312 128.002C3 128.002 2.708 128.098 2.436 128.29C2.164 128.482 1.944 128.722 1.776 129.01L0.624 128.242C0.896 127.746 1.272 127.338 1.752 127.018C2.232 126.698 2.796 126.538 3.444 126.538C4.22 126.538 4.876 126.766 5.412 127.222C5.948 127.67 6.216 128.282 6.216 129.058C6.216 129.426 6.144 129.774 6 130.102C5.864 130.422 5.684 130.698 5.46 130.93C5.236 131.162 4.984 131.382 4.704 131.59C4.432 131.798 4.16 131.99 3.888 132.166C3.616 132.342 3.364 132.518 3.132 132.694C2.9 132.862 2.708 133.046 2.556 133.246C2.412 133.446 2.336 133.654 2.328 133.87H6.348V135.202H0.696ZM12.2161 135.01C11.8081 135.234 11.3241 135.346 10.7641 135.346C10.2041 135.346 9.71609 135.234 9.30009 135.01C8.89209 134.786 8.57209 134.466 8.34009 134.05C8.10809 133.634 7.93609 133.17 7.82409 132.658C7.72009 132.146 7.66809 131.57 7.66809 130.93C7.66809 130.29 7.72009 129.714 7.82409 129.202C7.93609 128.69 8.10809 128.23 8.34009 127.822C8.57209 127.414 8.89209 127.098 9.30009 126.874C9.70809 126.65 10.1961 126.538 10.7641 126.538C12.8201 126.538 13.8481 128.002 13.8481 130.93C13.8481 131.57 13.7921 132.146 13.6801 132.658C13.5761 133.17 13.4081 133.634 13.1761 134.05C12.9521 134.466 12.6321 134.786 12.2161 135.01ZM9.26409 130.93C9.26409 132.93 9.76409 133.93 10.7641 133.93C11.7641 133.93 12.2641 132.93 12.2641 130.93C12.2641 128.954 11.7641 127.966 10.7641 127.966C9.76409 127.966 9.26409 128.954 9.26409 130.93ZM18.3953 129.778C18.0113 130.146 17.5473 130.33 17.0033 130.33C16.4593 130.33 15.9953 130.146 15.6113 129.778C15.2353 129.41 15.0473 128.962 15.0473 128.434C15.0473 127.914 15.2353 127.47 15.6113 127.102C15.9953 126.726 16.4593 126.538 17.0033 126.538C17.5393 126.538 17.9993 126.726 18.3833 127.102C18.7753 127.47 18.9713 127.914 18.9713 128.434C18.9713 128.962 18.7793 129.41 18.3953 129.778ZM15.3473 135.202L21.8873 126.682H23.2913L16.7513 135.202H15.3473ZM16.4393 128.998C16.5913 129.15 16.7793 129.226 17.0033 129.226C17.2273 129.226 17.4153 129.15 17.5673 128.998C17.7273 128.846 17.8073 128.658 17.8073 128.434C17.8073 128.218 17.7273 128.034 17.5673 127.882C17.4153 127.722 17.2273 127.642 17.0033 127.642C16.7793 127.642 16.5913 127.722 16.4393 127.882C16.2873 128.034 16.2113 128.218 16.2113 128.434C16.2113 128.658 16.2873 128.846 16.4393 128.998ZM20.2673 134.794C19.8913 134.426 19.7033 133.982 19.7033 133.462C19.7033 132.942 19.8913 132.498 20.2673 132.13C20.6513 131.754 21.1153 131.566 21.6593 131.566C22.1953 131.566 22.6553 131.754 23.0393 132.13C23.4233 132.498 23.6153 132.942 23.6153 133.462C23.6153 133.982 23.4233 134.426 23.0393 134.794C22.6633 135.162 22.2033 135.346 21.6593 135.346C21.1153 135.346 20.6513 135.162 20.2673 134.794ZM20.8672 133.45C20.8672 133.674 20.9433 133.862 21.0953 134.014C21.2473 134.166 21.4353 134.242 21.6593 134.242C21.8833 134.242 22.0713 134.166 22.2233 134.014C22.3833 133.862 22.4633 133.674 22.4633 133.45C22.4633 133.234 22.3833 133.05 22.2233 132.898C22.0713 132.738 21.8833 132.658 21.6593 132.658C21.4353 132.658 21.2473 132.738 21.0953 132.898C20.9433 133.05 20.8672 133.234 20.8672 133.45Z" fill="#151515"/>
<path d="M0.456 109.515L1.248 108.327C1.488 108.575 1.78 108.783 2.124 108.951C2.476 109.111 2.832 109.191 3.192 109.191C3.632 109.191 3.996 109.071 4.284 108.831C4.572 108.591 4.716 108.287 4.716 107.919C4.716 107.487 4.544 107.159 4.2 106.935C3.864 106.711 3.428 106.599 2.892 106.599H2.304L1.968 105.807L3.528 103.959C3.624 103.839 3.72 103.727 3.816 103.623C3.92 103.511 4 103.431 4.056 103.383L4.14 103.311V103.287C3.964 103.311 3.712 103.323 3.384 103.323H0.84V101.991H6.036V102.963L3.96 105.375C4.6 105.463 5.144 105.727 5.592 106.167C6.048 106.599 6.276 107.163 6.276 107.859C6.276 108.627 6.004 109.287 5.46 109.839C4.916 110.383 4.188 110.655 3.276 110.655C2.756 110.655 2.244 110.559 1.74 110.367C1.244 110.167 0.816 109.883 0.456 109.515ZM12.0989 110.319C11.6909 110.543 11.2069 110.655 10.6469 110.655C10.0869 110.655 9.59891 110.543 9.18291 110.319C8.77491 110.095 8.45491 109.775 8.22291 109.359C7.99091 108.943 7.81891 108.479 7.70691 107.967C7.60291 107.455 7.55091 106.879 7.55091 106.239C7.55091 105.599 7.60291 105.023 7.70691 104.511C7.81891 103.999 7.99091 103.539 8.22291 103.131C8.45491 102.723 8.77491 102.407 9.18291 102.183C9.59091 101.959 10.0789 101.847 10.6469 101.847C12.7029 101.847 13.7309 103.311 13.7309 106.239C13.7309 106.879 13.6749 107.455 13.5629 107.967C13.4589 108.479 13.2909 108.943 13.0589 109.359C12.8349 109.775 12.5149 110.095 12.0989 110.319ZM9.14691 106.239C9.14691 108.239 9.64691 109.239 10.6469 109.239C11.6469 109.239 12.1469 108.239 12.1469 106.239C12.1469 104.263 11.6469 103.275 10.6469 103.275C9.64691 103.275 9.14691 104.263 9.14691 106.239ZM18.2781 105.087C17.8941 105.455 17.4301 105.639 16.8861 105.639C16.3421 105.639 15.8781 105.455 15.4941 105.087C15.1181 104.719 14.9301 104.271 14.9301 103.743C14.9301 103.223 15.1181 102.779 15.4941 102.411C15.8781 102.035 16.3421 101.847 16.8861 101.847C17.4221 101.847 17.8821 102.035 18.2661 102.411C18.6581 102.779 18.8541 103.223 18.8541 103.743C18.8541 104.271 18.6621 104.719 18.2781 105.087ZM15.2301 110.511L21.7701 101.991H23.1741L16.6341 110.511H15.2301ZM16.3221 104.307C16.4741 104.459 16.6621 104.535 16.8861 104.535C17.1101 104.535 17.2981 104.459 17.4501 104.307C17.6101 104.155 17.6901 103.967 17.6901 103.743C17.6901 103.527 17.6101 103.343 17.4501 103.191C17.2981 103.031 17.1101 102.951 16.8861 102.951C16.6621 102.951 16.4741 103.031 16.3221 103.191C16.1701 103.343 16.0941 103.527 16.0941 103.743C16.0941 103.967 16.1701 104.155 16.3221 104.307ZM20.1501 110.103C19.7741 109.735 19.5861 109.291 19.5861 108.771C19.5861 108.251 19.7741 107.807 20.1501 107.439C20.5341 107.063 20.9981 106.875 21.5421 106.875C22.0781 106.875 22.5381 107.063 22.9221 107.439C23.3061 107.807 23.4981 108.251 23.4981 108.771C23.4981 109.291 23.3061 109.735 22.9221 110.103C22.5461 110.471 22.0861 110.655 21.5421 110.655C20.9981 110.655 20.5341 110.471 20.1501 110.103ZM20.7501 108.759C20.7501 108.983 20.8261 109.171 20.9781 109.323C21.1301 109.475 21.3181 109.551 21.5421 109.551C21.7661 109.551 21.9541 109.475 22.1061 109.323C22.2661 109.171 22.3461 108.983 22.3461 108.759C22.3461 108.543 22.2661 108.359 22.1061 108.207C21.9541 108.047 21.7661 107.967 21.5421 107.967C21.3181 107.967 21.1301 108.047 20.9781 108.207C20.8261 108.359 20.7501 108.543 20.7501 108.759Z" fill="#151515"/>
<path d="M0.36 82.876V81.928L4.044 76.552H5.868V81.592H6.972V82.876H5.868V85.072H4.344V82.876H0.36ZM1.992 81.592H4.344V78.952L4.404 78.064H4.38C4.252 78.368 4.112 78.628 3.96 78.844L1.992 81.568V81.592ZM12.6497 84.88C12.2417 85.104 11.7577 85.216 11.1977 85.216C10.6377 85.216 10.1497 85.104 9.73369 84.88C9.32569 84.656 9.00569 84.336 8.77369 83.92C8.54169 83.504 8.36969 83.04 8.25769 82.528C8.15369 82.016 8.10169 81.44 8.10169 80.8C8.10169 80.16 8.15369 79.584 8.25769 79.072C8.36969 78.56 8.54169 78.1 8.77369 77.692C9.00569 77.284 9.32569 76.968 9.73369 76.744C10.1417 76.52 10.6297 76.408 11.1977 76.408C13.2537 76.408 14.2817 77.872 14.2817 80.8C14.2817 81.44 14.2257 82.016 14.1137 82.528C14.0097 83.04 13.8417 83.504 13.6097 83.92C13.3857 84.336 13.0657 84.656 12.6497 84.88ZM9.69769 80.8C9.69769 82.8 10.1977 83.8 11.1977 83.8C12.1977 83.8 12.6977 82.8 12.6977 80.8C12.6977 78.824 12.1977 77.836 11.1977 77.836C10.1977 77.836 9.69769 78.824 9.69769 80.8ZM18.8288 79.648C18.4448 80.016 17.9808 80.2 17.4368 80.2C16.8928 80.2 16.4288 80.016 16.0448 79.648C15.6688 79.28 15.4808 78.832 15.4808 78.304C15.4808 77.784 15.6688 77.34 16.0448 76.972C16.4288 76.596 16.8928 76.408 17.4368 76.408C17.9728 76.408 18.4328 76.596 18.8168 76.972C19.2088 77.34 19.4048 77.784 19.4048 78.304C19.4048 78.832 19.2128 79.28 18.8288 79.648ZM15.7808 85.072L22.3208 76.552H23.7248L17.1848 85.072H15.7808ZM16.8728 78.868C17.0248 79.02 17.2128 79.096 17.4368 79.096C17.6608 79.096 17.8488 79.02 18.0008 78.868C18.1608 78.716 18.2408 78.528 18.2408 78.304C18.2408 78.088 18.1608 77.904 18.0008 77.752C17.8488 77.592 17.6608 77.512 17.4368 77.512C17.2128 77.512 17.0248 77.592 16.8728 77.752C16.7208 77.904 16.6448 78.088 16.6448 78.304C16.6448 78.528 16.7208 78.716 16.8728 78.868ZM20.7008 84.664C20.3248 84.296 20.1368 83.852 20.1368 83.332C20.1368 82.812 20.3248 82.368 20.7008 82C21.0848 81.624 21.5488 81.436 22.0928 81.436C22.6288 81.436 23.0888 81.624 23.4728 82C23.8568 82.368 24.0488 82.812 24.0488 83.332C24.0488 83.852 23.8568 84.296 23.4728 84.664C23.0968 85.032 22.6368 85.216 22.0928 85.216C21.5488 85.216 21.0848 85.032 20.7008 84.664ZM21.3008 83.32C21.3008 83.544 21.3768 83.732 21.5288 83.884C21.6808 84.036 21.8688 84.112 22.0928 84.112C22.3168 84.112 22.5048 84.036 22.6568 83.884C22.8168 83.732 22.8968 83.544 22.8968 83.32C22.8968 83.104 22.8168 82.92 22.6568 82.768C22.5048 82.608 22.3168 82.528 22.0928 82.528C21.8688 82.528 21.6808 82.608 21.5288 82.768C21.3768 82.92 21.3008 83.104 21.3008 83.32Z" fill="#151515"/>
<path d="M0.528 59.3733L1.332 58.2093C1.852 58.7773 2.456 59.0613 3.144 59.0613C3.576 59.0613 3.948 58.9293 4.26 58.6653C4.58 58.3933 4.74 58.0413 4.74 57.6093C4.74 57.1693 4.58 56.8133 4.26 56.5413C3.94 56.2693 3.532 56.1333 3.036 56.1333C2.564 56.1333 2.124 56.2533 1.716 56.4933L0.852 56.1813L1.248 51.8613H5.736V53.1933H2.592L2.46 54.5973L2.4 54.9933H2.424C2.664 54.8653 2.968 54.8013 3.336 54.8013C4.248 54.8013 4.976 55.0693 5.52 55.6053C6.064 56.1413 6.336 56.8053 6.336 57.5973C6.336 58.4373 6.044 59.1373 5.46 59.6973C4.876 60.2493 4.144 60.5253 3.264 60.5253C2.744 60.5253 2.244 60.4253 1.764 60.2253C1.284 60.0253 0.872 59.7413 0.528 59.3733ZM12.0638 60.1893C11.6558 60.4133 11.1718 60.5253 10.6118 60.5253C10.0518 60.5253 9.56375 60.4133 9.14775 60.1893C8.73975 59.9653 8.41975 59.6453 8.18775 59.2293C7.95575 58.8133 7.78375 58.3493 7.67175 57.8373C7.56775 57.3253 7.51575 56.7493 7.51575 56.1093C7.51575 55.4693 7.56775 54.8933 7.67175 54.3813C7.78375 53.8693 7.95575 53.4093 8.18775 53.0013C8.41975 52.5933 8.73975 52.2773 9.14775 52.0533C9.55575 51.8293 10.0438 51.7173 10.6118 51.7173C12.6678 51.7173 13.6958 53.1813 13.6958 56.1093C13.6958 56.7493 13.6398 57.3253 13.5278 57.8373C13.4238 58.3493 13.2558 58.8133 13.0238 59.2293C12.7998 59.6453 12.4798 59.9653 12.0638 60.1893ZM9.11175 56.1093C9.11175 58.1093 9.61175 59.1093 10.6118 59.1093C11.6118 59.1093 12.1118 58.1093 12.1118 56.1093C12.1118 54.1333 11.6118 53.1453 10.6118 53.1453C9.61175 53.1453 9.11175 54.1333 9.11175 56.1093ZM18.2429 54.9573C17.8589 55.3253 17.3949 55.5093 16.8509 55.5093C16.3069 55.5093 15.8429 55.3253 15.4589 54.9573C15.0829 54.5893 14.8949 54.1413 14.8949 53.6133C14.8949 53.0933 15.0829 52.6493 15.4589 52.2813C15.8429 51.9053 16.3069 51.7173 16.8509 51.7173C17.3869 51.7173 17.8469 51.9053 18.2309 52.2813C18.6229 52.6493 18.8189 53.0933 18.8189 53.6133C18.8189 54.1413 18.6269 54.5893 18.2429 54.9573ZM15.1949 60.3813L21.7349 51.8613H23.1389L16.5989 60.3813H15.1949ZM16.2869 54.1773C16.4389 54.3293 16.6269 54.4053 16.8509 54.4053C17.0749 54.4053 17.2629 54.3293 17.4149 54.1773C17.5749 54.0253 17.6549 53.8373 17.6549 53.6133C17.6549 53.3973 17.5749 53.2133 17.4149 53.0613C17.2629 52.9013 17.0749 52.8213 16.8509 52.8213C16.6269 52.8213 16.4389 52.9013 16.2869 53.0613C16.1349 53.2133 16.0589 53.3973 16.0589 53.6133C16.0589 53.8373 16.1349 54.0253 16.2869 54.1773ZM20.1149 59.9733C19.7389 59.6053 19.5509 59.1613 19.5509 58.6413C19.5509 58.1213 19.7389 57.6773 20.1149 57.3093C20.4989 56.9333 20.9629 56.7453 21.5069 56.7453C22.0429 56.7453 22.5029 56.9333 22.8869 57.3093C23.2709 57.6773 23.4629 58.1213 23.4629 58.6413C23.4629 59.1613 23.2709 59.6053 22.8869 59.9733C22.5109 60.3413 22.0509 60.5253 21.5069 60.5253C20.9629 60.5253 20.4989 60.3413 20.1149 59.9733ZM20.7149 58.6293C20.7149 58.8533 20.7909 59.0413 20.9429 59.1933C21.0949 59.3453 21.2829 59.4213 21.5069 59.4213C21.7309 59.4213 21.9189 59.3453 22.0709 59.1933C22.2309 59.0413 22.3109 58.8533 22.3109 58.6293C22.3109 58.4133 22.2309 58.2293 22.0709 58.0773C21.9189 57.9173 21.7309 57.8373 21.5069 57.8373C21.2829 57.8373 21.0949 57.9173 20.9429 58.0773C20.7909 58.2293 20.7149 58.4133 20.7149 58.6293Z" fill="#151515"/>
<path d="M0.624 31.0545C0.624 30.5985 0.672 30.1465 0.768 29.6985C0.872 29.2505 1.032 28.8225 1.248 28.4145C1.464 27.9985 1.72 27.6345 2.016 27.3225C2.32 27.0025 2.688 26.7505 3.12 26.5665C3.56 26.3745 4.036 26.2785 4.548 26.2785C5.212 26.2785 5.796 26.3985 6.3 26.6385L5.844 27.9705C5.524 27.7945 5.12 27.7065 4.632 27.7065C4.008 27.7065 3.504 27.9265 3.12 28.3665C2.736 28.8065 2.488 29.3465 2.376 29.9865H2.4C2.544 29.8105 2.768 29.6665 3.072 29.5545C3.376 29.4425 3.684 29.3865 3.996 29.3865C4.812 29.3865 5.468 29.6625 5.964 30.2145C6.468 30.7665 6.72 31.4425 6.72 32.2425C6.72 33.0425 6.46 33.7185 5.94 34.2705C5.42 34.8145 4.748 35.0865 3.924 35.0865C2.996 35.0865 2.212 34.7225 1.572 33.9945C0.94 33.2665 0.624 32.2865 0.624 31.0545ZM3.936 33.6705C4.312 33.6705 4.616 33.5345 4.848 33.2625C5.08 32.9905 5.196 32.6505 5.196 32.2425C5.196 31.7865 5.056 31.4105 4.776 31.1145C4.504 30.8105 4.124 30.6585 3.636 30.6585C3.244 30.6585 2.912 30.7465 2.64 30.9225C2.368 31.0905 2.232 31.3225 2.232 31.6185C2.232 32.1145 2.4 32.5825 2.736 33.0225C3.072 33.4545 3.472 33.6705 3.936 33.6705ZM12.4622 34.7505C12.0542 34.9745 11.5702 35.0865 11.0102 35.0865C10.4502 35.0865 9.96219 34.9745 9.54619 34.7505C9.13819 34.5265 8.81819 34.2065 8.58619 33.7905C8.35419 33.3745 8.18219 32.9105 8.07019 32.3985C7.96619 31.8865 7.91419 31.3105 7.91419 30.6705C7.91419 30.0305 7.96619 29.4545 8.07019 28.9425C8.18219 28.4305 8.35419 27.9705 8.58619 27.5625C8.81819 27.1545 9.13819 26.8385 9.54619 26.6145C9.95419 26.3905 10.4422 26.2785 11.0102 26.2785C13.0662 26.2785 14.0942 27.7425 14.0942 30.6705C14.0942 31.3105 14.0382 31.8865 13.9262 32.3985C13.8222 32.9105 13.6542 33.3745 13.4222 33.7905C13.1982 34.2065 12.8782 34.5265 12.4622 34.7505ZM9.51019 30.6705C9.51019 32.6705 10.0102 33.6705 11.0102 33.6705C12.0102 33.6705 12.5102 32.6705 12.5102 30.6705C12.5102 28.6945 12.0102 27.7065 11.0102 27.7065C10.0102 27.7065 9.51019 28.6945 9.51019 30.6705ZM18.6413 29.5185C18.2573 29.8865 17.7933 30.0705 17.2493 30.0705C16.7053 30.0705 16.2413 29.8865 15.8573 29.5185C15.4813 29.1505 15.2933 28.7025 15.2933 28.1745C15.2933 27.6545 15.4813 27.2105 15.8573 26.8425C16.2413 26.4665 16.7053 26.2785 17.2493 26.2785C17.7853 26.2785 18.2453 26.4665 18.6293 26.8425C19.0213 27.2105 19.2173 27.6545 19.2173 28.1745C19.2173 28.7025 19.0253 29.1505 18.6413 29.5185ZM15.5933 34.9425L22.1333 26.4225H23.5373L16.9973 34.9425H15.5933ZM16.6853 28.7385C16.8373 28.8905 17.0253 28.9665 17.2493 28.9665C17.4733 28.9665 17.6613 28.8905 17.8133 28.7385C17.9733 28.5865 18.0533 28.3985 18.0533 28.1745C18.0533 27.9585 17.9733 27.7745 17.8133 27.6225C17.6613 27.4625 17.4733 27.3825 17.2493 27.3825C17.0253 27.3825 16.8373 27.4625 16.6853 27.6225C16.5333 27.7745 16.4573 27.9585 16.4573 28.1745C16.4573 28.3985 16.5333 28.5865 16.6853 28.7385ZM20.5133 34.5345C20.1373 34.1665 19.9493 33.7225 19.9493 33.2025C19.9493 32.6825 20.1373 32.2385 20.5133 31.8705C20.8973 31.4945 21.3613 31.3065 21.9053 31.3065C22.4413 31.3065 22.9013 31.4945 23.2853 31.8705C23.6693 32.2385 23.8613 32.6825 23.8613 33.2025C23.8613 33.7225 23.6693 34.1665 23.2853 34.5345C22.9093 34.9025 22.4493 35.0865 21.9053 35.0865C21.3613 35.0865 20.8973 34.9025 20.5133 34.5345ZM21.1133 33.1905C21.1133 33.4145 21.1893 33.6025 21.3413 33.7545C21.4933 33.9065 21.6813 33.9825 21.9053 33.9825C22.1293 33.9825 22.3173 33.9065 22.4693 33.7545C22.6293 33.6025 22.7093 33.4145 22.7093 33.1905C22.7093 32.9745 22.6293 32.7905 22.4693 32.6385C22.3173 32.4785 22.1293 32.3985 21.9053 32.3985C21.6813 32.3985 21.4933 32.4785 21.3413 32.6385C21.1893 32.7905 21.1133 32.9745 21.1133 33.1905Z" fill="#151515"/>
<path d="M246 5.23743H275.928" stroke="#6655E5" stroke-width="4" stroke-linecap="round" stroke-linejoin="round"/>
<path d="M161 5.23743H190.928" stroke="#EEEEEE" stroke-width="4" stroke-linecap="round" stroke-linejoin="round"/>
<path d="M287.231 11V2.528H291.899V3.56H288.419V6.356H291.383V7.388H288.419V11H287.231ZM292.525 7.952C292.525 7.048 292.841 6.296 293.473 5.696C294.105 5.088 294.877 4.784 295.789 4.784C296.709 4.784 297.485 5.084 298.117 5.684C298.749 6.284 299.065 7.04 299.065 7.952C299.065 8.864 298.749 9.624 298.117 10.232C297.485 10.84 296.713 11.144 295.801 11.144C294.889 11.144 294.113 10.84 293.473 10.232C292.841 9.624 292.525 8.864 292.525 7.952ZM293.713 7.952C293.713 8.584 293.913 9.108 294.313 9.524C294.721 9.932 295.217 10.136 295.801 10.136C296.377 10.136 296.869 9.928 297.277 9.512C297.685 9.096 297.889 8.576 297.889 7.952C297.889 7.328 297.685 6.812 297.277 6.404C296.869 5.996 296.377 5.792 295.801 5.792C295.217 5.792 294.721 5.996 294.313 6.404C293.913 6.812 293.713 7.328 293.713 7.952ZM300.468 11V4.928H301.596V6.02L301.56 6.464H301.584C301.736 6 301.984 5.616 302.328 5.312C302.672 5.008 303.068 4.856 303.516 4.856C303.596 4.856 303.7 4.864 303.828 4.88V6.032C303.764 6.016 303.652 6.008 303.492 6.008C302.884 6.008 302.42 6.256 302.1 6.752C301.788 7.24 301.632 7.816 301.632 8.48V11H300.468ZM305.232 8.78V5.936H304.44V4.988H305.256V3.26H306.396V4.988H307.86V5.936H306.396V8.648C306.396 8.88 306.428 9.084 306.492 9.26C306.556 9.428 306.632 9.56 306.72 9.656C306.816 9.752 306.924 9.828 307.044 9.884C307.172 9.94 307.284 9.976 307.38 9.992C307.484 10.008 307.588 10.016 307.692 10.016C307.796 10.016 307.888 10.008 307.968 9.992V11.024C307.776 11.048 307.64 11.06 307.56 11.06C307.376 11.06 307.192 11.044 307.008 11.012C306.832 10.988 306.632 10.932 306.408 10.844C306.184 10.748 305.988 10.624 305.82 10.472C305.66 10.312 305.52 10.088 305.4 9.8C305.288 9.504 305.232 9.164 305.232 8.78ZM309.164 11V4.928H310.292V5.756L310.256 6.212H310.28C310.432 5.868 310.704 5.544 311.096 5.24C311.496 4.936 311.992 4.784 312.584 4.784C313.968 4.784 314.66 5.56 314.66 7.112V11H313.496V7.376C313.496 6.888 313.416 6.512 313.256 6.248C313.104 5.984 312.804 5.852 312.356 5.852C311.772 5.852 311.288 6.068 310.904 6.5C310.52 6.924 310.328 7.452 310.328 8.084V11H309.164ZM316.37 3.704V2.528H317.57V3.704H316.37ZM316.394 11V4.928H317.558V11H316.394ZM319.599 8.78V5.936H318.807V4.988H319.623V3.26H320.763V4.988H322.227V5.936H320.763V8.648C320.763 8.88 320.795 9.084 320.859 9.26C320.923 9.428 320.999 9.56 321.087 9.656C321.183 9.752 321.291 9.828 321.411 9.884C321.539 9.94 321.651 9.976 321.747 9.992C321.851 10.008 321.955 10.016 322.059 10.016C322.163 10.016 322.255 10.008 322.335 9.992V11.024C322.143 11.048 322.007 11.06 321.927 11.06C321.743 11.06 321.559 11.044 321.375 11.012C321.199 10.988 320.999 10.932 320.775 10.844C320.551 10.748 320.355 10.624 320.187 10.472C320.027 10.312 319.887 10.088 319.767 9.8C319.655 9.504 319.599 9.164 319.599 8.78ZM323.076 7.964C323.076 7.012 323.364 6.244 323.94 5.66C324.516 5.076 325.244 4.784 326.124 4.784C326.948 4.784 327.592 5.056 328.056 5.6C328.52 6.136 328.752 6.812 328.752 7.628C328.752 7.732 328.736 7.896 328.704 8.12H324.288C324.32 8.752 324.532 9.248 324.924 9.608C325.324 9.96 325.808 10.136 326.376 10.136C327.04 10.136 327.636 9.9 328.164 9.428L328.656 10.28C328.368 10.544 328.008 10.756 327.576 10.916C327.152 11.068 326.728 11.144 326.304 11.144C325.36 11.144 324.584 10.844 323.976 10.244C323.376 9.636 323.076 8.876 323.076 7.964ZM324.324 7.28H327.576C327.56 6.776 327.412 6.384 327.132 6.104C326.86 5.824 326.516 5.684 326.1 5.684C325.644 5.684 325.252 5.828 324.924 6.116C324.604 6.396 324.404 6.784 324.324 7.28Z" fill="#151515"/>
<path d="M202.925 11L200.765 2.528H202.013L203.489 8.744L203.657 9.644H203.681C203.729 9.356 203.793 9.056 203.873 8.744L205.541 2.528H206.585L208.241 8.744L208.433 9.644H208.457C208.489 9.348 208.541 9.048 208.613 8.744L210.185 2.528H211.409L209.177 11H207.821L206.333 5.504L206.081 4.316H206.033C205.961 4.74 205.873 5.136 205.769 5.504L204.293 11H202.925ZM211.773 7.952C211.773 7.048 212.089 6.296 212.721 5.696C213.353 5.088 214.125 4.784 215.037 4.784C215.957 4.784 216.733 5.084 217.365 5.684C217.997 6.284 218.313 7.04 218.313 7.952C218.313 8.864 217.997 9.624 217.365 10.232C216.733 10.84 215.961 11.144 215.049 11.144C214.137 11.144 213.361 10.84 212.721 10.232C212.089 9.624 211.773 8.864 211.773 7.952ZM212.961 7.952C212.961 8.584 213.161 9.108 213.561 9.524C213.969 9.932 214.465 10.136 215.049 10.136C215.625 10.136 216.117 9.928 216.525 9.512C216.933 9.096 217.137 8.576 217.137 7.952C217.137 7.328 216.933 6.812 216.525 6.404C216.117 5.996 215.625 5.792 215.049 5.792C214.465 5.792 213.969 5.996 213.561 6.404C213.161 6.812 212.961 7.328 212.961 7.952ZM220.763 11V3.56H217.847V2.528H224.855V3.56H221.939V11H220.763Z" fill="#151515"/>
</svg>
